<svg width="40" height="40" viewBox="0 0 40 40" fill="none" xmlns="http://www.w3.org/2000/svg">
<g clip-path="url(#clip0_1_44)">
<path d="M15.2897 20.9421L12.9459 9.22328C12.8928 8.95764 12.7493 8.71861 12.5398 8.54686C12.3303 8.37511 12.0678 8.28125 11.7969 8.28125H9.45313C9.18223 8.28125 8.91969 8.37511 8.7102 8.54686C8.5007 8.71861 8.35718 8.95764 8.30406 9.22328L5.96031 20.942C5.83336 21.5767 6.245 22.1941 6.87961 22.3209C7.51422 22.4479 8.13164 22.0363 8.25852 21.4016L9.00758 17.6562H12.2424L12.9915 21.4017C13.1184 22.0366 13.7361 22.448 14.3704 22.321C15.005 22.1941 15.4166 21.5767 15.2897 20.9421ZM9.47633 15.3125L10.4138 10.625H10.8362L11.7737 15.3125H9.47633ZM34.0625 17.6562H30.5469V16.4844C30.5469 15.8372 30.0222 15.3125 29.375 15.3125C28.7278 15.3125 28.2031 15.8372 28.2031 16.4844V17.6562H24.6875C24.0403 17.6562 23.5156 18.1809 23.5156 18.8281C23.5156 19.4753 24.0403 20 24.6875 20H24.9711C25.6388 22.1572 26.6441 23.813 27.7504 25.1398C26.85 25.9634 25.9389 26.6388 25.1273 27.288C24.622 27.6923 24.54 28.4298 24.9444 28.9352C25.3489 29.4408 26.0864 29.5223 26.5915 29.1181C27.4076 28.4652 28.3858 27.7397 29.375 26.8319C30.3649 27.7403 31.3449 28.4672 32.1585 29.1181C32.6639 29.5225 33.4014 29.4405 33.8056 28.9352C34.2099 28.4298 34.128 27.6923 33.6227 27.288C32.8132 26.6403 31.9009 25.9642 30.9996 25.1398C32.1059 23.813 33.1112 22.1572 33.7789 20H34.0625C34.7097 20 35.2344 19.4753 35.2344 18.8281C35.2344 18.1809 34.7097 17.6562 34.0625 17.6562ZM29.375 23.4176C28.627 22.4785 27.954 21.3577 27.4466 19.9922H31.3033C30.796 21.3577 30.123 22.4785 29.375 23.4176Z" fill="#2C3333"/>
<path d="M36.4844 7.10938H19.578L19.0757 3.07953C18.8563 1.32391 17.3566 0 15.5873 0H3.51562C1.57711 0 0 1.57711 0 3.51562V29.375C0 31.3135 1.57711 32.8906 3.51562 32.8906H13.3971L13.893 36.9205C14.1121 38.6726 15.6118 40 17.3816 40H36.4844C38.4229 40 40 38.4229 40 36.4844V10.625C40 8.68648 38.4229 7.10938 36.4844 7.10938ZM3.51562 30.5469C2.86945 30.5469 2.34375 30.0212 2.34375 29.375V3.51562C2.34375 2.86945 2.86945 2.34375 3.51562 2.34375H15.5873C16.177 2.34375 16.677 2.785 16.75 3.36984L20.1378 30.5469H3.51562ZM16.1503 36.0742L15.7585 32.8906H18.9026L16.1503 36.0742ZM37.6562 36.4844C37.6562 37.1305 37.1305 37.6562 36.4844 37.6562H17.8808L22.342 32.4959C22.4545 32.3691 22.5381 32.2195 22.587 32.0573C22.636 31.8951 22.6491 31.7243 22.6255 31.5565L19.8702 9.45312H36.4844C37.1305 9.45312 37.6562 9.97883 37.6562 10.625V36.4844Z" fill="#2C3333"/>
</g>
<defs>
<clipPath id="clip0_1_44">
<rect width="40" height="40" fill="white"/>
</clipPath>
</defs>
</svg>
