<svg width="18" height="18" viewBox="0 0 18 18" fill="none" xmlns="http://www.w3.org/2000/svg">
<path d="M2.99999 0H5.24999C6.90683 0 8.24998 1.34314 8.24998 2.99999V5.24999C8.24998 6.90683 6.90683 8.24998 5.24999 8.24998H2.99999C1.34314 8.25001 0 6.90687 0 5.24999V2.99999C0 1.34314 1.34314 0 2.99999 0ZM12.75 0H15C16.6569 0 18 1.34314 18 2.99999V5.24999C18 6.90683 16.6569 8.24998 15 8.24998H12.75C11.0932 8.24998 9.75002 6.90683 9.75002 5.24999V2.99999C9.74999 1.34314 11.0931 0 12.75 0ZM2.99999 9.74999H5.24999C6.90683 9.74999 8.24998 11.0931 8.24998 12.75V15C8.24998 16.6568 6.90683 18 5.24999 18H2.99999C1.34314 18 0 16.6569 0 15V12.75C0 11.0931 1.34314 9.74999 2.99999 9.74999ZM12.75 9.74999H15C16.6569 9.74999 18 11.0931 18 12.75V15C18 16.6569 16.6569 18 15 18H12.75C11.0932 18 9.75002 16.6569 9.75002 15V12.75C9.74999 11.0931 11.0931 9.74999 12.75 9.74999Z" fill="white"/>
</svg>
