<svg width="120" height="120" viewBox="0 0 120 120" fill="none" xmlns="http://www.w3.org/2000/svg">
<path d="M60 120C93.1371 120 120 93.1371 120 60C120 26.8629 93.1371 0 60 0C26.8629 0 0 26.8629 0 60C0 93.1371 26.8629 120 60 120Z" fill="#541690"/>
<path d="M77.5781 38.9062C77.5781 29.2137 69.6926 21.3281 60 21.3281C50.3074 21.3281 42.4219 29.2137 42.4219 38.9062C42.4219 48.5988 50.3074 56.4844 60 56.4844C69.6926 56.4844 77.5781 48.5988 77.5781 38.9062ZM60 56.4844C42.5534 56.4844 28.3594 70.6784 28.3594 88.125V91.4198C28.3594 92.4192 28.7845 93.3713 29.5289 94.038C38.0925 101.711 48.9141 105.938 60 105.938C71.0862 105.938 81.9077 101.711 90.4711 94.038C90.8391 93.7083 91.1335 93.3048 91.335 92.8536C91.5365 92.4025 91.6406 91.9139 91.6406 91.4198V88.125C91.6406 70.6784 77.4466 56.4844 60 56.4844Z" fill="url(#paint0_linear_1_6)"/>
<defs>
<linearGradient id="paint0_linear_1_6" x1="60" y1="105.938" x2="60" y2="21.3281" gradientUnits="userSpaceOnUse">
<stop stop-color="#EAF6FF"/>
<stop offset="1" stop-color="white"/>
</linearGradient>
</defs>
</svg>
