<svg width="258" height="48" viewBox="0 0 258 48" fill="none" xmlns="http://www.w3.org/2000/svg">
<g clip-path="url(#clip0_192_3)">
<g clip-path="url(#clip1_192_3)">
<path fill-rule="evenodd" clip-rule="evenodd" d="M48.9025 33.5748C48.4611 29.9674 46.5361 26.6175 43.3902 24.7526C42.9914 24.516 42.5892 24.3157 42.1866 24.1478C40.5098 23.4479 38.8232 23.3058 37.3169 23.4291C32.7701 23.801 30.5218 26.0259 26.9935 28.5093C22.9538 30.979 12.5685 39.6448 7.84872 35.5526C3.88444 32.1157 5.88963 25.782 10.7913 23.9385C15.6927 22.0953 19.6951 24.4507 19.6951 24.4507C15.5913 22.341 6.33449 24.5655 8.3643 29.6103C9.655 32.8178 12.7027 32.1301 15.4211 30.7922C18.8121 29.1232 22.1787 26.3027 26.2083 26.3074C23.3794 20.2056 7.31514 16.7649 1.57016 27.1654C1.36493 27.5373 1.18023 27.9168 1.01606 28.3028C0.114021 30.4225 -0.171712 32.7274 0.0982349 34.9359C0.539622 38.5432 2.46461 41.8932 5.61053 43.7581C6.00961 43.9944 6.41153 44.1949 6.81408 44.3629C13.5334 47.1677 23.9098 39.6345 31.1993 34.6155C34.2976 32.482 37.5145 29.8046 41.152 32.9581C45.1166 36.395 43.1111 42.729 38.2094 44.5722C33.3077 46.4154 29.3056 44.06 29.3056 44.06C33.4094 46.1697 42.6662 43.9454 40.6364 38.9004C39.3457 35.6929 36.2977 36.3805 33.5793 37.7185C30.1884 39.3875 26.8218 42.208 22.7921 42.2033C25.621 48.3051 41.6856 51.7454 47.4302 41.3452C47.6355 40.9736 47.8202 40.5939 47.9844 40.2079C48.8864 38.0879 49.1724 35.783 48.9022 33.5745" fill="url(#paint0_linear_192_3)"/>
<path fill-rule="evenodd" clip-rule="evenodd" d="M11.9957 0C16.8036 0 20.7012 3.87441 20.7012 8.65363C20.7012 13.4329 16.8036 17.3073 11.9957 17.3073C7.18777 17.3073 3.28979 13.4332 3.28979 8.65363C3.28979 3.8741 7.18777 0 11.9957 0Z" fill="#FF2171"/>
<path fill-rule="evenodd" clip-rule="evenodd" d="M38.8812 6.00604C43.046 6.00604 46.4224 9.3623 46.4224 13.5022C46.4224 17.6421 43.046 20.9984 38.8812 20.9984C34.7165 20.9984 31.3401 17.6421 31.3401 13.5022C31.3401 9.3623 34.7165 6.00604 38.8812 6.00604Z" fill="#FF2171"/>
</g>
<path d="M236.862 28.18C236.862 26.164 237.258 24.376 238.05 22.816C238.866 21.256 239.97 20.056 241.362 19.216C242.754 18.376 244.302 17.956 246.006 17.956C247.302 17.956 248.538 18.244 249.714 18.82C250.89 19.372 251.826 20.116 252.522 21.052V11.584H257.634V38.224H252.522V35.272C251.898 36.256 251.022 37.048 249.894 37.648C248.766 38.248 247.458 38.548 245.97 38.548C244.29 38.548 242.754 38.116 241.362 37.252C239.97 36.388 238.866 35.176 238.05 33.616C237.258 32.032 236.862 30.22 236.862 28.18ZM252.558 28.252C252.558 27.028 252.318 25.984 251.838 25.12C251.358 24.232 250.71 23.56 249.894 23.104C249.078 22.624 248.202 22.384 247.266 22.384C246.33 22.384 245.466 22.612 244.674 23.068C243.882 23.524 243.234 24.196 242.73 25.084C242.25 25.948 242.01 26.98 242.01 28.18C242.01 29.38 242.25 30.436 242.73 31.348C243.234 32.236 243.882 32.92 244.674 33.4C245.49 33.88 246.354 34.12 247.266 34.12C248.202 34.12 249.078 33.892 249.894 33.436C250.71 32.956 251.358 32.284 251.838 31.42C252.318 30.532 252.558 29.476 252.558 28.252Z" fill="#282828"/>
<path d="M234.479 27.82C234.479 28.54 234.431 29.188 234.335 29.764H219.755C219.875 31.204 220.379 32.332 221.267 33.148C222.155 33.964 223.247 34.372 224.543 34.372C226.415 34.372 227.747 33.568 228.539 31.96H233.975C233.399 33.88 232.295 35.464 230.663 36.712C229.031 37.936 227.027 38.548 224.651 38.548C222.731 38.548 221.003 38.128 219.467 37.288C217.955 36.424 216.767 35.212 215.903 33.652C215.063 32.092 214.643 30.292 214.643 28.252C214.643 26.188 215.063 24.376 215.903 22.816C216.743 21.256 217.919 20.056 219.431 19.216C220.943 18.376 222.683 17.956 224.651 17.956C226.547 17.956 228.239 18.364 229.727 19.18C231.239 19.996 232.403 21.16 233.219 22.672C234.059 24.16 234.479 25.876 234.479 27.82ZM229.259 26.38C229.235 25.084 228.767 24.052 227.855 23.284C226.943 22.492 225.827 22.096 224.507 22.096C223.259 22.096 222.203 22.48 221.339 23.248C220.499 23.992 219.983 25.036 219.791 26.38H229.259Z" fill="#282828"/>
<path d="M208.475 15.904C207.587 15.904 206.843 15.628 206.243 15.076C205.667 14.5 205.379 13.792 205.379 12.952C205.379 12.112 205.667 11.416 206.243 10.864C206.843 10.288 207.587 10 208.475 10C209.363 10 210.095 10.288 210.671 10.864C211.271 11.416 211.571 12.112 211.571 12.952C211.571 13.792 211.271 14.5 210.671 15.076C210.095 15.628 209.363 15.904 208.475 15.904ZM210.959 18.28V38.224H205.919V18.28H210.959Z" fill="#282828"/>
<path d="M196.405 21.376C197.053 20.32 197.893 19.492 198.925 18.892C199.981 18.292 201.181 17.992 202.525 17.992V23.284H201.193C199.609 23.284 198.409 23.656 197.593 24.4C196.801 25.144 196.405 26.44 196.405 28.288V38.224H191.365V18.28H196.405V21.376Z" fill="#282828"/>
<path d="M181.85 21.376C182.498 20.32 183.338 19.492 184.37 18.892C185.426 18.292 186.626 17.992 187.97 17.992V23.284H186.638C185.054 23.284 183.854 23.656 183.038 24.4C182.246 25.144 181.85 26.44 181.85 28.288V38.224H176.81V18.28H181.85V21.376Z" fill="#282828"/>
<path d="M151.115 28.18C151.115 26.164 151.511 24.376 152.303 22.816C153.119 21.256 154.211 20.056 155.579 19.216C156.971 18.376 158.519 17.956 160.223 17.956C161.711 17.956 163.007 18.256 164.111 18.856C165.239 19.456 166.139 20.212 166.811 21.124V18.28H171.887V38.224H166.811V35.308C166.163 36.244 165.263 37.024 164.111 37.648C162.983 38.248 161.675 38.548 160.187 38.548C158.507 38.548 156.971 38.116 155.579 37.252C154.211 36.388 153.119 35.176 152.303 33.616C151.511 32.032 151.115 30.22 151.115 28.18ZM166.811 28.252C166.811 27.028 166.571 25.984 166.091 25.12C165.611 24.232 164.963 23.56 164.147 23.104C163.331 22.624 162.455 22.384 161.519 22.384C160.583 22.384 159.719 22.612 158.927 23.068C158.135 23.524 157.487 24.196 156.983 25.084C156.503 25.948 156.263 26.98 156.263 28.18C156.263 29.38 156.503 30.436 156.983 31.348C157.487 32.236 158.135 32.92 158.927 33.4C159.743 33.88 160.607 34.12 161.519 34.12C162.455 34.12 163.331 33.892 164.147 33.436C164.963 32.956 165.611 32.284 166.091 31.42C166.571 30.532 166.811 29.476 166.811 28.252Z" fill="#282828"/>
<path d="M147.429 13.096V38.224H142.389V21.88L135.657 38.224H131.841L125.073 21.88V38.224H120.033V13.096H125.757L133.749 31.78L141.741 13.096H147.429Z" fill="#282828"/>
<path d="M111.943 22.42V32.068C111.943 32.74 112.099 33.232 112.411 33.544C112.747 33.832 113.299 33.976 114.067 33.976H116.407V38.224H113.239C108.991 38.224 106.867 36.16 106.867 32.032V22.42H104.491V18.28H106.867V13.348H111.943V18.28H116.407V22.42H111.943Z" fill="#282828"/>
<path d="M102.397 27.82C102.397 28.54 102.349 29.188 102.253 29.764H87.6728C87.7928 31.204 88.2968 32.332 89.1848 33.148C90.0728 33.964 91.1648 34.372 92.4608 34.372C94.3328 34.372 95.6648 33.568 96.4568 31.96H101.893C101.317 33.88 100.213 35.464 98.5808 36.712C96.9488 37.936 94.9448 38.548 92.5688 38.548C90.6488 38.548 88.9208 38.128 87.3848 37.288C85.8728 36.424 84.6848 35.212 83.8208 33.652C82.9808 32.092 82.5608 30.292 82.5608 28.252C82.5608 26.188 82.9808 24.376 83.8208 22.816C84.6608 21.256 85.8368 20.056 87.3488 19.216C88.8608 18.376 90.6008 17.956 92.5688 17.956C94.4648 17.956 96.1568 18.364 97.6448 19.18C99.1568 19.996 100.321 21.16 101.137 22.672C101.977 24.16 102.397 25.876 102.397 27.82ZM97.1768 26.38C97.1528 25.084 96.6848 24.052 95.7728 23.284C94.8608 22.492 93.7448 22.096 92.4248 22.096C91.1768 22.096 90.1208 22.48 89.2568 23.248C88.4168 23.992 87.9008 25.036 87.7088 26.38H97.1768Z" fill="#282828"/>
<path d="M73.72 20.656C73.144 19.6 72.352 18.796 71.344 18.244C70.336 17.692 69.16 17.416 67.816 17.416C66.328 17.416 65.008 17.752 63.856 18.424C62.704 19.096 61.804 20.056 61.156 21.304C60.508 22.552 60.184 23.992 60.184 25.624C60.184 27.304 60.508 28.768 61.156 30.016C61.828 31.264 62.752 32.224 63.928 32.896C65.104 33.568 66.472 33.904 68.032 33.904C69.952 33.904 71.524 33.4 72.748 32.392C73.972 31.36 74.776 29.932 75.16 28.108H66.52V24.256H80.128V28.648C79.792 30.4 79.072 32.02 77.968 33.508C76.864 34.996 75.436 36.196 73.684 37.108C71.956 37.996 70.012 38.44 67.852 38.44C65.428 38.44 63.232 37.9 61.264 36.82C59.32 35.716 57.784 34.192 56.656 32.248C55.552 30.304 55 28.096 55 25.624C55 23.152 55.552 20.944 56.656 19C57.784 17.032 59.32 15.508 61.264 14.428C63.232 13.324 65.416 12.772 67.816 12.772C70.648 12.772 73.108 13.468 75.196 14.86C77.284 16.228 78.724 18.16 79.516 20.656H73.72Z" fill="#282828"/>
</g>
<defs>
<linearGradient id="paint0_linear_192_3" x1="1.07461" y1="20.5714" x2="38.6358" y2="40.5909" gradientUnits="userSpaceOnUse">
<stop stop-color="#F31559"/>
<stop offset="1" stop-color="#F11A7B"/>
</linearGradient>
<clipPath id="clip0_192_3">
<rect width="258" height="48" fill="white"/>
</clipPath>
<clipPath id="clip1_192_3">
<rect width="49" height="48" fill="white"/>
</clipPath>
</defs>
</svg>
