<svg width="382" height="512" viewBox="0 0 382 512" fill="none" xmlns="http://www.w3.org/2000/svg">
<path d="M119.407 381.575L190.861 432.566L260.889 381.575" stroke="#541690" stroke-width="22" stroke-miterlimit="10" stroke-linejoin="round"/>
<path d="M266.819 62.631C313.809 62.631 343.2 111.062 347.268 164.393C347.583 168.526 348.017 172.647 348.463 176.767C356.54 251.296 301.184 312.658 231.657 313.744" stroke="#541690" stroke-width="22" stroke-miterlimit="10" stroke-linecap="round" stroke-linejoin="round"/>
<path d="M268.23 104.038C273.572 115.186 279.134 121.164 283.876 143.091C286.621 155.785 287.924 168.759 287.924 181.759V218.167C287.924 276.325 244.467 323.472 190.861 323.472C137.254 323.472 93.798 276.325 93.798 218.167V167.936" stroke="#541690" stroke-width="22" stroke-miterlimit="10" stroke-linecap="round" stroke-linejoin="round"/>
<path d="M93.797 167.936C219.824 167.936 268.23 104.038 268.23 104.038V76.308C268.23 40.239 239.546 11 204.163 11H181.087C128.495 11 81.331 44.01 62.439 94.043L41.626 149.161C11.378 229.265 69.38 315.379 153.582 315.379L141.141 354.075C136.216 369.393 124.342 381.346 109.254 386.172L55.378 403.407C38.634 408.764 25.979 422.841 22.203 440.311L11.187 491.28C10.108 496.271 13.836 501 18.85 501H362.871C367.951 501 371.692 496.154 370.498 491.121L357.477 436.257C353.274 418.549 339.946 404.579 322.698 399.805L270.38 385.322C254.903 381.038 242.464 369.303 237.075 353.906L224.206 317.134" stroke="#541690" stroke-width="22" stroke-miterlimit="10" stroke-linejoin="round"/>
</svg>
