<svg width="512" height="512" viewBox="0 0 512 512" fill="none" xmlns="http://www.w3.org/2000/svg">
<g clip-path="url(#clip0_5_2)">
<path d="M300.919 384.023L255.042 368.206C246.479 365.253 238.906 360.003 233.139 353.023C230.139 349.39 224.761 348.878 221.126 351.878C217.492 354.879 216.979 360.257 219.981 363.892C223.765 368.474 228.131 372.497 232.944 375.884C211.629 412.884 161.865 422.379 128.421 394.572C124.798 391.559 119.418 392.054 116.404 395.677C113.391 399.3 113.886 404.681 117.509 407.695C159.23 442.387 221.643 430.494 248.053 383.824C249.602 384.398 244.169 382.512 295.356 400.16C315.201 407.002 328.533 425.701 328.533 446.691V503.467C328.533 508.179 332.354 512 337.067 512C341.779 512 345.6 508.179 345.6 503.467V446.691C345.6 418.422 327.645 393.239 300.919 384.023Z" fill="#541690"/>
<path d="M139.744 333.399C211.053 355.014 284.182 303.271 286.871 228.324C298.226 225.596 307.517 217.519 311.915 206.911C316.418 206.676 320 202.962 320 198.4V183.467C320 179.887 317.793 176.826 314.667 175.559V158.283C342.618 151.875 369.678 140.185 394.45 122.931C403.846 140.483 418.622 153.17 436.267 159.773V224.133C436.267 277.657 392.723 321.2 339.2 321.2C323.005 321.2 306.98 317.135 292.857 309.444C288.72 307.193 283.535 308.718 281.281 312.859C279.028 316.997 280.556 322.179 284.695 324.434C286.386 325.355 288.105 326.219 289.839 327.051C289.232 332.657 287.676 338.071 285.179 343.2C282.395 348.921 286.626 355.471 292.846 355.471C296.009 355.471 299.046 353.706 300.525 350.671C303.181 345.214 305.063 339.364 306.141 333.37C379.376 355.459 452.744 300.733 453.33 225.036C453.332 224.955 453.333 153.6 453.333 153.6C453.333 149.786 450.801 146.433 447.132 145.392C427.651 139.858 412.983 125.717 405.85 106.849C403.828 101.507 397.214 99.6128 392.676 103.093C369.786 120.637 343.571 133.532 314.667 140.724V93.3771C314.667 41.8891 272.778 0 221.29 0H148.108C111.499 0 78.8629 20.9387 63.5371 53.7824C45.7035 56.5749 32.0128 72.0363 32 90.6389V187.699C32 192.412 35.8208 196.233 40.5333 196.233C45.2459 196.233 49.0667 192.412 49.0667 187.699V90.6667C49.0667 79.4912 58.1579 70.4 69.3333 70.4C72.8224 70.4 75.9605 68.2763 77.2565 65.0357C88.912 35.8955 116.723 17.0667 148.109 17.0667H221.291C263.367 17.0667 297.6 51.2992 297.6 93.3771V193.067C297.6 200.574 293.278 207.07 286.983 210.225V154.99C287.007 122.031 260.388 95.2405 227.31 95.2192C227.31 95.2192 118.482 95.1456 118.467 95.1456C85.4891 95.1456 58.7765 121.812 58.736 154.804C58.736 154.804 58.6667 223.796 58.6667 224.006C58.6976 269.353 85.1797 308.596 123.434 327.044C121.379 345.799 108.69 361.955 90.5579 368.207L44.6795 384.025C17.9552 393.239 0 418.422 0 446.691V503.467C0 508.179 3.8208 512 8.53333 512C13.2459 512 17.0667 508.179 17.0667 503.467V446.691C17.0667 425.7 30.3989 407.001 50.2421 400.159L96.1205 384.34C119.079 376.425 135.554 356.718 139.744 333.399ZM75.7355 224.639C75.7653 224.193 75.8027 154.958 75.8027 154.85C75.8187 131.539 94.6005 112.25 118.468 112.25H227.299C250.62 112.265 269.923 131.158 269.914 154.978C269.885 234.066 269.89 222.106 269.89 224.199C269.872 277.632 226.692 321.2 172.677 321.2C119.469 321.2 76.1205 277.954 75.7355 224.639Z" fill="#541690"/>
<path d="M145.067 174.933C140.354 174.933 136.533 178.754 136.533 183.467V198.4C136.533 203.113 140.354 206.933 145.067 206.933C149.779 206.933 153.6 203.113 153.6 198.4V183.467C153.6 178.754 149.779 174.933 145.067 174.933Z" fill="#541690"/>
<path d="M200.533 206.933C205.246 206.933 209.067 203.113 209.067 198.4V183.467C209.067 178.754 205.246 174.933 200.533 174.933C195.821 174.933 192 178.754 192 183.467V198.4C192 203.113 195.821 206.933 200.533 206.933Z" fill="#541690"/>
<path d="M467.319 384.023L421.442 368.206C413.374 365.424 406.133 360.566 400.508 354.159C397.396 350.618 392.004 350.269 388.465 353.377C384.924 356.487 384.574 361.879 387.683 365.42C391.146 369.362 395.065 372.863 399.332 375.867C393.091 386.641 383.942 395.716 372.993 401.841C368.88 404.142 367.411 409.341 369.711 413.455C372.013 417.569 377.212 419.036 381.325 416.737C395.143 409.007 406.661 397.492 414.439 383.819C415.874 384.352 410.8 382.591 461.758 400.16C481.601 407.002 494.933 425.701 494.933 446.691V503.467C494.933 508.179 498.754 512 503.467 512C508.179 512 512 508.179 512 503.467V446.691C512 418.422 494.045 393.239 467.319 384.023Z" fill="#541690"/>
<path d="M327.81 17.0667H366.4C420.217 17.0667 464 60.8533 464 114.673V278.474C464 286.894 458.019 293.971 449.778 295.305C445.125 296.058 441.965 300.438 442.717 305.091C443.463 309.708 447.807 312.906 452.503 312.153C469.055 309.474 481.067 295.311 481.067 278.473V114.673C481.067 51.4421 429.627 -1.52588e-05 366.4 -1.52588e-05H327.81C323.098 -1.52588e-05 319.277 3.82078 319.277 8.53332C319.277 13.2459 323.098 17.0667 327.81 17.0667Z" fill="#541690"/>
<path d="M375.467 198.4V183.467C375.467 178.754 371.646 174.933 366.933 174.933C362.221 174.933 358.4 178.754 358.4 183.467V198.4C358.4 203.113 362.221 206.933 366.933 206.933C371.646 206.933 375.467 203.113 375.467 198.4Z" fill="#541690"/>
</g>
<defs>
<clipPath id="clip0_5_2">
<rect width="512" height="512" fill="white"/>
</clipPath>
</defs>
</svg>
