<svg width="512" height="491" viewBox="0 0 512 491" fill="none" xmlns="http://www.w3.org/2000/svg">
<path d="M92.836 11H235.16L265.658 71.996H62.338L92.836 11Z" stroke="#541690" stroke-width="22" stroke-miterlimit="10" stroke-linecap="round" stroke-linejoin="round"/>
<path d="M163.998 173.656L265.658 71.996H62.338L163.998 173.656Z" stroke="#541690" stroke-width="22" stroke-miterlimit="10" stroke-linecap="round" stroke-linejoin="round"/>
<path d="M163.998 173.656L130.111 71.996H197.885L163.998 173.656Z" stroke="#541690" stroke-width="22" stroke-miterlimit="10" stroke-linecap="round" stroke-linejoin="round"/>
<path d="M187.719 11H140.277L130.111 71.996H197.885L187.719 11Z" stroke="#541690" stroke-width="22" stroke-miterlimit="10" stroke-linecap="round" stroke-linejoin="round"/>
<path d="M348.002 173.656C313.466 173.656 281.606 185.104 256 204.405C272.433 216.792 286.291 232.412 296.623 250.325C311.295 240.43 328.974 234.652 348.002 234.652C398.813 234.652 440.004 275.843 440.004 326.654C440.004 377.465 398.813 418.656 348.002 418.656C297.191 418.656 256 377.465 256 326.654C256 294.871 239.883 266.853 215.377 250.325C202.419 272.791 195.004 298.856 195.004 326.654C195.004 411.153 263.504 479.652 348.002 479.652C432.5 479.652 501 411.152 501 326.654C501 242.156 432.5 173.656 348.002 173.656Z" stroke="#541690" stroke-width="22" stroke-miterlimit="10" stroke-linecap="round" stroke-linejoin="round"/>
<path d="M215.377 402.983C200.705 412.878 183.026 418.656 163.998 418.656C113.187 418.656 71.996 377.465 71.996 326.654C71.996 275.843 113.187 234.652 163.998 234.652C214.809 234.652 256 275.843 256 326.654C256 358.437 272.117 386.455 296.623 402.983C309.581 380.517 316.996 354.452 316.996 326.654C316.996 242.156 248.496 173.656 163.998 173.656C79.5 173.656 11 242.155 11 326.654C11 411.153 79.5 479.652 163.998 479.652C198.534 479.652 230.394 468.205 256 448.903C239.566 436.516 225.709 420.895 215.377 402.983Z" stroke="#541690" stroke-width="22" stroke-miterlimit="10" stroke-linecap="round" stroke-linejoin="round"/>
</svg>
