<svg width="417" height="513" viewBox="0 0 417 513" fill="none" xmlns="http://www.w3.org/2000/svg">
<path d="M158.294 247.468V275.523L67.0223 300.47C32.1712 309.996 8 341.661 8 377.79V504.971H408.783V377.79C408.783 341.661 384.612 309.996 349.76 300.47L258.489 275.523V247.468" stroke="#541690" stroke-width="15.0294" stroke-miterlimit="10"/>
<path d="M158.294 275.522C158.294 303.193 180.721 325.62 208.391 325.62C236.061 325.62 258.489 303.193 258.489 275.522" stroke="#541690" stroke-width="15.0294" stroke-miterlimit="10"/>
<path d="M128.636 283.628C132.704 324.097 166.85 355.679 208.391 355.679C249.933 355.679 284.079 324.097 288.147 283.628" stroke="#541690" stroke-width="15.0294" stroke-miterlimit="10"/>
<path d="M83.1468 504.971V422.81C83.1468 422.81 103.186 390.748 103.186 361.691C103.186 327.624 83.1468 294.56 83.1468 294.56" stroke="#541690" stroke-width="15.0294" stroke-miterlimit="10"/>
<path d="M333.636 504.971V422.81C333.636 422.81 313.597 390.748 313.597 361.691C313.597 327.624 333.636 294.56 333.636 294.56" stroke="#541690" stroke-width="15.0294" stroke-miterlimit="10"/>
<path d="M208.391 355.679V504.971" stroke="#541690" stroke-width="15.0294" stroke-miterlimit="10"/>
<path d="M288.548 151.28C288.548 151.28 328.626 130.239 328.626 96.1722C328.626 69.1194 314.599 56.0939 297.566 56.0939C297.566 38.0587 263.499 8 208.391 8C175.327 8 96.1722 32.047 96.1722 85.1507C96.1722 120.219 128.235 151.28 128.235 151.28V185.346C128.235 229.616 164.122 265.503 208.391 265.503C252.661 265.503 288.548 229.616 288.548 185.346V151.28Z" stroke="#541690" stroke-width="15.0294" stroke-miterlimit="10"/>
<path d="M297.566 56.0939C265.353 64.851 241.887 71.7946 222.078 80.201" stroke="#541690" stroke-width="15.0294" stroke-miterlimit="10"/>
<path d="M183.352 101.663C166.55 113.546 149.767 129.076 128.235 151.28" stroke="#541690" stroke-width="15.0294" stroke-miterlimit="10"/>
<path d="M103.186 115.209C164.305 64.1096 198.372 40.0626 286.544 34.0509" stroke="#541690" stroke-width="15.0294" stroke-miterlimit="10"/>
<path d="M232.498 107.985C255.674 116.923 272.527 132.052 288.548 151.28" stroke="#541690" stroke-width="15.0294" stroke-miterlimit="10"/>
<path d="M318.607 131.241C293.558 101.182 268.509 83.1468 223.421 79.1389" stroke="#541690" stroke-width="15.0294" stroke-miterlimit="10"/>
<path d="M228.431 212.399C228.431 223.467 219.459 232.438 208.391 232.438C197.324 232.438 188.352 223.467 188.352 212.399" stroke="#541690" stroke-width="15.0294" stroke-miterlimit="10"/>
<path d="M208.391 126.231C222.226 126.231 233.44 115.016 233.44 101.182C233.44 87.3479 222.226 76.1331 208.391 76.1331C194.557 76.1331 183.342 87.3479 183.342 101.182C183.342 115.016 194.557 126.231 208.391 126.231Z" stroke="#541690" stroke-width="15.0294" stroke-miterlimit="10"/>
</svg>
