<svg width="86" height="86" viewBox="0 0 86 86" fill="none" xmlns="http://www.w3.org/2000/svg">
<path d="M61.74 43.1525C60.0989 42.3717 58.4108 41.694 56.6853 41.1233C62.2422 36.9523 65.8434 30.3107 65.8434 22.8437C65.8434 10.2477 55.5959 0 42.9998 0C30.4037 0 20.1561 10.2477 20.1561 22.8437C20.1561 30.3189 23.7654 36.9671 29.3327 41.1372C24.2319 42.8166 19.4456 45.4297 15.2565 48.8754C7.57496 55.1938 2.23408 64.007 0.217958 73.6915C-0.413938 76.726 0.343094 79.8428 2.29455 82.2424C4.23643 84.6303 7.11591 85.9997 10.1944 85.9997H51.5662C53.4215 85.9997 54.9255 84.4957 54.9255 82.6403C54.9255 80.785 53.4215 79.281 51.5662 79.281H10.1944C8.76031 79.281 7.89511 78.4804 7.5071 78.0034C6.83708 77.1795 6.57774 76.107 6.79559 75.0608C10.2818 58.3152 25.0522 46.0827 42.1092 45.6702C42.7056 45.6933 43.3027 45.6932 43.8991 45.6699C49.1262 45.7925 54.1535 46.9854 58.8556 49.2207C60.5315 50.0169 62.5353 49.3045 63.3318 47.6287C64.1283 45.9531 63.4158 43.949 61.74 43.1525ZM43.8191 38.948C43.2751 38.9379 42.7309 38.938 42.1868 38.9483C33.6717 38.5235 26.8748 31.4625 26.8748 22.8437C26.8748 13.9523 34.1084 6.71873 42.9998 6.71873C51.8912 6.71873 59.1247 13.9523 59.1247 22.8437C59.1247 31.4603 52.3312 38.52 43.8191 38.948Z" fill="#541690"/>
<path d="M82.6403 66.6834H73.402V57.4451C73.402 55.5897 71.898 54.0858 70.0427 54.0858C68.1873 54.0858 66.6833 55.5897 66.6833 57.4451V66.6834H57.4451C55.5897 66.6834 54.0857 68.1874 54.0857 70.0427C54.0857 71.8981 55.5897 73.4021 57.4451 73.4021H66.6833V82.6403C66.6833 84.4957 68.1873 85.9997 70.0427 85.9997C71.898 85.9997 73.402 84.4957 73.402 82.6403V73.4021H82.6403C84.4957 73.4021 85.9996 71.8981 85.9996 70.0427C85.9996 68.1874 84.4957 66.6834 82.6403 66.6834Z" fill="#541690"/>
</svg>
