<svg width="89" height="89" viewBox="0 0 89 89" fill="none" xmlns="http://www.w3.org/2000/svg">
<path d="M24.5734 20.2542C23.2899 18.9696 21.2074 18.9696 19.9239 20.2542C15.1582 25.0199 12.8159 31.6587 13.4966 38.4696C13.6664 40.1664 15.0958 41.4311 16.7651 41.4311C16.8747 41.4311 16.9853 41.4256 17.095 41.4146C18.9024 41.2338 20.2209 39.6214 20.0401 37.8152C19.5557 32.9749 21.2086 28.2685 24.5734 24.9036C25.858 23.6202 25.858 21.5376 24.5734 20.2542Z" fill="#541690"/>
<path d="M37.5948 0C16.8649 0 0 16.8649 0 37.5948C0 58.3246 16.8649 75.1896 37.5948 75.1896C58.3246 75.1896 75.1896 58.3246 75.1896 37.5948C75.1896 16.8649 58.3244 0 37.5948 0ZM37.5948 68.6131C20.4908 68.6131 6.57643 54.6987 6.57643 37.5948C6.57643 20.4908 20.4908 6.57643 37.5948 6.57643C54.6977 6.57643 68.6131 20.4908 68.6131 37.5948C68.6131 54.6987 54.6987 68.6131 37.5948 68.6131Z" fill="#541690"/>
<path d="M88.0365 83.3871L64.1423 59.493C62.8577 58.2085 60.7773 58.2085 59.4927 59.493C58.2082 60.7766 58.2082 62.859 59.4927 64.1426L83.3869 88.0366C83.6918 88.3425 84.0542 88.5851 84.4531 88.7504C84.8521 88.9157 85.2798 89.0005 85.7117 89C86.5536 89 87.3942 88.6789 88.0365 88.0366C89.3209 86.7531 89.3209 84.6706 88.0365 83.3871Z" fill="#541690"/>
</svg>
