<svg width="74" height="96" viewBox="0 0 74 96" fill="none" xmlns="http://www.w3.org/2000/svg">
<path d="M40.1078 30.5771L57.9272 14.0136C57.9418 13.9999 57.9549 13.9853 57.969 13.971C57.9789 13.9609 57.9891 13.9511 57.9988 13.9408C58.0382 13.8986 58.0751 13.8548 58.1087 13.809L58.1207 13.7912C58.1524 13.7464 58.1811 13.7003 58.2071 13.6528C58.2101 13.6474 58.2141 13.6427 58.2169 13.6371C58.2186 13.6339 58.2197 13.6303 58.2214 13.6271C58.2488 13.575 58.2728 13.5216 58.2932 13.4668C58.2968 13.4572 58.2998 13.4475 58.3031 13.4379C58.3204 13.389 58.335 13.3391 58.3468 13.2887C58.3489 13.2801 58.3515 13.2714 58.3534 13.2628C58.3652 13.2077 58.3733 13.152 58.3785 13.0959L58.3813 13.0579C58.3849 13.005 58.3862 12.9519 58.3838 12.8989L58.3836 12.885C58.3796 12.8158 58.3707 12.747 58.3567 12.6791C58.3313 12.5519 58.2887 12.4287 58.23 12.3129C58.2038 12.2602 58.1743 12.2091 58.1419 12.1599L50.4045 0.637875C50.3963 0.625687 50.3863 0.615 50.3779 0.603C50.3565 0.572694 50.3339 0.543234 50.3102 0.514687C50.2963 0.498187 50.2817 0.482625 50.2671 0.466875C50.2405 0.437693 50.2129 0.409547 50.1842 0.3825C50.1709 0.370312 50.157 0.359063 50.1433 0.347438C50.1114 0.319716 50.0783 0.29338 50.0441 0.2685C50.0329 0.260438 50.0209 0.253312 50.0093 0.245625C49.9712 0.219686 49.9319 0.195596 49.8915 0.173438C49.8842 0.1695 49.8767 0.1665 49.8694 0.16275C49.6662 0.05649 49.4404 0.00066983 49.2111 0L24.1905 0C24.1268 0 24.0636 0.0043125 24.0011 0.0125625C23.7962 0.0373529 23.5989 0.106044 23.4229 0.213954C23.2469 0.321864 23.0962 0.466456 22.9811 0.637875L15.2441 12.1599C15.2115 12.2091 15.1821 12.2603 15.1558 12.3131C15.1498 12.3251 15.1438 12.3369 15.1382 12.3491C15.0885 12.4543 15.0519 12.5652 15.0291 12.6793L15.0225 12.7138C15.0123 12.7704 15.0055 12.8276 15.0023 12.885L15.0021 12.8989C14.9998 12.9521 15.0009 13.0052 15.0045 13.0581L15.0073 13.0958C15.0126 13.1518 15.0206 13.2077 15.0324 13.2628C15.0343 13.2714 15.0369 13.2801 15.039 13.2887C15.0508 13.3391 15.0654 13.389 15.0827 13.4381C15.0861 13.4477 15.0889 13.4572 15.0926 13.4666C15.1133 13.5214 15.1373 13.5748 15.1646 13.6271C15.1663 13.6303 15.1673 13.6339 15.1691 13.6371C15.1721 13.6425 15.1759 13.6472 15.1789 13.6528C15.2049 13.7003 15.2336 13.7464 15.2653 13.7912L15.2773 13.809C15.3198 13.8664 15.3665 13.9206 15.417 13.971C15.4311 13.9853 15.4442 13.9999 15.4588 14.0136L33.2783 30.5771C18.9283 32.2721 7.76025 44.5091 7.76025 59.3074C7.76025 75.261 20.7394 88.2401 36.693 88.2401C52.6466 88.2401 65.6257 75.261 65.6257 59.3074C65.6257 44.5091 54.4577 32.2721 40.1078 30.5771ZM39.8348 26.9064L44.0036 14.3979H53.2916L39.8348 26.9064ZM36.6966 27.2338L32.4403 14.3981H40.9744L36.6966 27.2338ZM49.3412 4.20994L54.2526 11.5239H45.3713L49.3412 4.20994ZM46.7949 2.87606L42.9549 9.951L39.1149 2.87606H46.7949ZM40.5384 11.5239H32.8631L36.7009 4.4535L40.5384 11.5239ZM34.2868 2.87606L30.4468 9.95119L26.6068 2.87606H34.2868ZM24.0533 4.19681L28.0303 11.5239H19.1333L24.0533 4.19681ZM20.094 14.3981H29.4122L33.5638 26.9186L20.094 14.3981ZM36.6928 85.3657C22.3241 85.3657 10.6343 73.6759 10.6343 59.3072C10.6343 44.9385 22.3241 33.2486 36.6928 33.2486C51.0615 33.2486 62.7514 44.9385 62.7514 59.3072C62.7514 73.6759 51.0615 85.3657 36.6928 85.3657Z" fill="#541690"/>
<path d="M51.0962 25.5527C50.7466 25.4081 50.3541 25.4072 50.0039 25.5501C49.6536 25.6931 49.3738 25.9684 49.2252 26.3163C49.0766 26.6642 49.0712 27.0566 49.2101 27.4085C49.349 27.7604 49.6211 28.0433 49.9672 28.1959C62.4472 33.5272 70.5114 45.7391 70.5114 59.3074C70.5114 77.955 55.3404 93.126 36.6928 93.126C18.0452 93.126 2.87419 77.9548 2.87419 59.3072C2.87419 45.7134 10.9594 33.4924 23.472 28.173C23.8228 28.0239 24.0999 27.7415 24.2425 27.3881C24.3851 27.0346 24.3814 26.639 24.2323 26.2882C24.0832 25.9375 23.8009 25.6603 23.4474 25.5177C23.0939 25.3752 22.6983 25.3788 22.3476 25.5279C8.77181 31.2996 0 44.5586 0 59.3072C0 79.5397 16.4603 96 36.6928 96C56.9254 96 73.3856 79.5397 73.3856 59.3072C73.3856 44.5862 64.6365 31.3369 51.0962 25.5527Z" fill="#541690"/>
</svg>
