<svg width="97" height="97" viewBox="0 0 97 97" fill="none" xmlns="http://www.w3.org/2000/svg">
<path d="M76.7015 60.088C74.7128 58.0203 72.314 56.9148 69.7717 56.9148C67.25 56.9148 64.8307 57.9998 62.7599 60.0676L56.2812 66.5164C55.7481 66.2298 55.2151 65.9637 54.7025 65.6975C53.9645 65.329 53.2674 64.981 52.6728 64.6125C46.6041 60.7636 41.089 55.7479 35.7994 49.2581C33.2366 46.0234 31.5144 43.3006 30.2638 40.5368C31.945 39.0013 33.5031 37.4045 35.0203 35.869C35.5944 35.2958 36.1684 34.7021 36.7425 34.1289C41.048 29.8297 41.048 24.2611 36.7425 19.9619L31.1454 14.3729C30.5098 13.7383 29.8537 13.0831 29.2387 12.428C28.0085 11.1587 26.7169 9.84847 25.3842 8.62012C23.3955 6.65476 21.0172 5.61066 18.5159 5.61066C16.0147 5.61066 13.5954 6.65476 11.5452 8.62012L11.5042 8.66107L4.53337 15.6831C1.90907 18.3036 0.412401 21.4973 0.084364 25.2029C-0.407692 31.1808 1.35551 36.7494 2.70866 40.3935C6.03004 49.34 10.9916 57.6313 18.3929 66.5164C27.3729 77.2235 38.1777 85.6787 50.5201 91.6362C55.2356 93.8677 61.5298 96.5087 68.5621 96.9591C68.9926 96.9795 69.4437 97 69.8537 97C74.5898 97 78.5672 95.3008 81.6836 91.9228C81.7041 91.8819 81.7451 91.8614 81.7656 91.8205C82.8317 90.5307 84.0618 89.3638 85.3535 88.1149C86.2351 87.2756 87.1372 86.3952 88.0188 85.474C90.0485 83.3653 91.1146 80.9086 91.1146 78.3905C91.1146 75.8519 90.028 73.4157 87.9573 71.3684L76.7015 60.088ZM84.0413 81.6456C84.0208 81.6661 84.0208 81.6456 84.0413 81.6456C83.2418 82.5055 82.4217 83.2834 81.5401 84.1433C80.2074 85.4126 78.8543 86.7433 77.5831 88.2378C75.5124 90.4488 73.0726 91.4929 69.8742 91.4929C69.5667 91.4929 69.2387 91.4929 68.9311 91.4724C62.842 91.0834 57.1833 88.7086 52.9393 86.6819C41.335 81.0724 31.1454 73.1086 22.6779 63.0156C15.6866 54.6014 11.0121 46.8218 7.91625 38.4691C6.00953 33.3714 5.31245 29.3997 5.61999 25.6533C5.82501 23.258 6.74762 21.2721 8.44931 19.5729L15.4406 12.5918C16.4452 11.6501 17.5113 11.1382 18.557 11.1382C19.8486 11.1382 20.8942 11.9162 21.5503 12.5713L21.6118 12.6327C22.8624 13.7997 24.0516 15.0076 25.3022 16.2973C25.9378 16.9524 26.5939 17.6076 27.2499 18.2832L32.8471 23.8722C35.0203 26.0422 35.0203 28.0485 32.8471 30.2186C32.2525 30.8123 31.6784 31.406 31.0839 31.9793C29.3617 33.7399 27.7215 35.3777 25.9378 36.9746C25.8968 37.0155 25.8558 37.036 25.8353 37.0769C24.0721 38.8376 24.4001 40.5573 24.7692 41.7242L24.8307 41.9084C26.2863 45.4297 28.3366 48.7463 31.4529 52.6975L31.4734 52.7179C37.132 59.6786 43.0982 65.1038 49.6795 69.2597C50.5201 69.792 51.3812 70.2219 52.2012 70.6314C52.9393 70.9999 53.6364 71.3479 54.231 71.7164C54.313 71.7574 54.395 71.8188 54.477 71.8597C55.1741 72.2078 55.8302 72.3716 56.5067 72.3716C58.2084 72.3716 59.2746 71.307 59.6231 70.9589L66.6349 63.9574C67.332 63.2613 68.4391 62.4219 69.7307 62.4219C71.0019 62.4219 72.0475 63.2203 72.6831 63.9164L72.7241 63.9574L84.0208 75.2377C86.1326 77.3259 86.1326 79.4755 84.0413 81.6456ZM52.4268 23.0737C57.7984 23.9745 62.6779 26.5131 66.5734 30.4029C70.4688 34.2927 72.9906 39.1651 73.9132 44.5289C74.1387 45.8801 75.3074 46.8218 76.64 46.8218C76.804 46.8218 76.9475 46.8014 77.1116 46.7809C78.6287 46.5352 79.6333 45.1022 79.3873 43.5872C78.2802 37.0974 75.2049 31.1808 70.5098 26.4926C65.8148 21.8044 59.8896 18.7335 53.3904 17.628C51.8732 17.3824 50.4586 18.3855 50.192 19.88C49.9255 21.3745 50.9096 22.8281 52.4268 23.0737ZM96.9578 42.7888C95.1331 32.1021 90.0895 22.3777 82.3397 14.639C74.5898 6.90043 64.8512 1.86419 54.149 0.0421355C52.6523 -0.224007 51.2376 0.799619 50.9711 2.29411C50.7251 3.80908 51.7297 5.22168 53.2469 5.48783C62.8009 7.10516 71.5144 11.6296 78.4442 18.5288C85.374 25.4485 89.8845 34.1494 91.5042 43.6896C91.7297 45.0407 92.8983 45.9825 94.231 45.9825C94.395 45.9825 94.5385 45.962 94.7026 45.9415C96.1992 45.7163 97.2243 44.2833 96.9578 42.7888Z" fill="#541690"/>
</svg>
