<svg width="143" height="48" viewBox="0 0 143 48" fill="none" xmlns="http://www.w3.org/2000/svg">
<g clip-path="url(#clip0_119_4450)">
<path d="M131.612 0.000156H11.3941C10.9558 0.000156 10.5229 0.000156 10.0858 0.002556C9.71999 0.004956 9.35705 0.011928 8.98769 0.017796C8.18525 0.0272782 7.3847 0.0981675 6.593 0.229848C5.80241 0.364395 5.03658 0.618055 4.32143 0.982248C3.60714 1.34952 2.95448 1.82676 2.38712 2.39664C1.81678 2.96492 1.34136 3.62178 0.979133 4.34195C0.615909 5.06069 0.364049 5.83088 0.232251 6.62593C0.0991991 7.41998 0.0276028 8.22318 0.0181044 9.02833C0.00701472 9.39625 0.00584361 9.7654 0 10.1334V37.8705C0.00584361 38.2431 0.00701472 38.604 0.0181044 38.9768C0.0276058 39.7819 0.099202 40.585 0.232251 41.379C0.363685 42.1745 0.61556 42.9452 0.979133 43.6642C1.34119 44.382 1.81668 45.0362 2.38712 45.6014C2.95233 46.1738 3.60541 46.6513 4.32143 47.0158C5.03658 47.381 5.80232 47.6361 6.593 47.7728C7.38484 47.9034 8.1853 47.9743 8.98769 47.9849C9.35705 47.9931 9.71999 47.9978 10.0858 47.9978C10.5229 48.0002 10.9559 48.0002 11.3941 48.0002H131.612C132.042 48.0002 132.478 48.0002 132.908 47.9978C133.272 47.9978 133.645 47.9931 134.009 47.9849C134.81 47.9749 135.609 47.9039 136.399 47.7728C137.193 47.6352 137.961 47.3801 138.68 47.0158C139.395 46.6511 140.048 46.1736 140.612 45.6014C141.181 45.034 141.658 44.3803 142.024 43.6642C142.385 42.9447 142.635 42.1741 142.764 41.379C142.897 40.5849 142.972 39.7819 142.986 38.9768C142.991 38.604 142.991 38.2431 142.991 37.8705C143 37.4345 143 37.001 143 36.5579V11.4435C143 11.0041 143 10.5681 142.991 10.1334C142.991 9.7654 142.991 9.39625 142.986 9.02828C142.972 8.22306 142.897 7.42004 142.764 6.62588C142.634 5.83129 142.385 5.06116 142.024 4.3419C141.287 2.89839 140.117 1.72339 138.68 0.98214C137.961 0.618837 137.193 0.365244 136.399 0.22974C135.609 0.0974793 134.81 0.0265653 134.009 0.017628C133.645 0.011772 133.272 0.00474 132.908 0.0024C132.478 0 132.042 0 131.612 0V0.000156Z" fill="#ECF1F4"/>
<path d="M10.0915 46.9503C9.72736 46.9503 9.37206 46.9456 9.01082 46.9375C8.26248 46.9277 7.51589 46.8622 6.77717 46.7417C6.08835 46.6226 5.42108 46.401 4.79735 46.0843C4.17934 45.7701 3.61566 45.3582 3.12792 44.8643C2.63311 44.3763 2.22116 43.8102 1.90839 43.1885C1.59218 42.5628 1.37334 41.8922 1.2595 41.1999C1.13656 40.456 1.07005 39.7039 1.06053 38.9499C1.05296 38.6968 1.04304 37.8542 1.04304 37.8542V10.1335C1.04304 10.1335 1.0536 9.30381 1.06059 9.06005C1.06971 8.30727 1.13583 7.55628 1.2584 6.81357C1.37245 6.11939 1.59146 5.44679 1.90784 4.81905C2.21946 4.19783 2.62912 3.63133 3.12095 3.14151C3.61222 2.64704 4.1777 2.23302 4.79676 1.91454C5.41906 1.59881 6.08507 1.37877 6.7725 1.26182C7.51364 1.1401 8.26282 1.07429 9.01376 1.06494L10.092 1.05029H132.902L133.993 1.06553C134.737 1.07441 135.479 1.13963 136.214 1.26064C136.908 1.37906 137.581 1.60063 138.21 1.91806C139.451 2.55988 140.46 3.57529 141.096 4.82198C141.408 5.44539 141.623 6.1125 141.736 6.80068C141.86 7.54948 141.929 8.30638 141.944 9.06533C141.947 9.40517 141.947 9.77021 141.947 10.1335C141.957 10.5835 141.957 11.0118 141.957 11.4436V36.5581C141.957 36.994 141.957 37.4194 141.947 37.8483C141.947 38.2385 141.947 38.596 141.942 38.9639C141.928 39.7093 141.86 40.4527 141.738 41.1881C141.627 41.8854 141.409 42.5613 141.093 43.1921C140.778 43.807 140.368 44.3682 139.879 44.855C139.391 45.3515 138.826 45.7658 138.207 46.082C137.579 46.4012 136.907 46.6236 136.214 46.7417C135.475 46.8629 134.728 46.9283 133.98 46.9375C133.63 46.9456 133.263 46.9503 132.908 46.9503L131.612 46.9527L10.0915 46.9503Z" fill="#ECF1F4"/>
<path d="M29.5988 24.3618C29.6117 23.3602 29.8766 22.3781 30.369 21.507C30.8613 20.6358 31.5652 19.9039 32.4149 19.3793C31.8751 18.6051 31.1629 17.968 30.335 17.5185C29.5071 17.069 28.5862 16.8196 27.6454 16.7901C25.6387 16.5786 23.6933 17.9959 22.6707 17.9959C21.6284 17.9959 20.0539 16.8111 18.3585 16.8461C17.2619 16.8817 16.1931 17.2019 15.2564 17.7756C14.3197 18.3492 13.5469 19.1568 13.0133 20.1195C10.7022 24.1376 12.4261 30.0429 14.64 33.2908C15.7476 34.8813 17.0422 36.6578 18.736 36.5948C20.3936 36.5258 21.0127 35.5334 23.0135 35.5334C24.9957 35.5334 25.5765 36.5948 27.3048 36.5547C29.0834 36.5258 30.204 34.9573 31.2728 33.3518C32.0687 32.2185 32.6811 30.9661 33.0873 29.6408C32.054 29.2019 31.1722 28.4673 30.5518 27.5285C29.9315 26.5898 29.6 25.4884 29.5988 24.3618Z" fill="#222C34"/>
<path d="M26.3346 14.6536C27.3044 13.4845 27.7822 11.9819 27.6665 10.4648C26.1849 10.6211 24.8163 11.3322 23.8334 12.4564C23.3528 13.0056 22.9848 13.6445 22.7503 14.3366C22.5158 15.0287 22.4194 15.7605 22.4667 16.49C23.2077 16.4977 23.9409 16.3364 24.6109 16.0183C25.2809 15.7002 25.8703 15.2336 26.3346 14.6536Z" fill="#222C34"/>
<path d="M50.5514 32.5677H44.8949L43.5365 36.5954H41.1407L46.4984 21.6938H48.9876L54.3453 36.5954H51.9086L50.5514 32.5677ZM45.4808 30.7091H49.9645L47.7541 24.1724H47.6923L45.4808 30.7091Z" fill="#222C34"/>
<path d="M65.9162 31.1632C65.9162 34.5394 64.1167 36.7085 61.401 36.7085C60.7131 36.7447 60.029 36.5856 59.4269 36.2494C58.8249 35.9132 58.3293 35.4136 57.9969 34.8077H57.9455V40.189H55.7247V25.7304H57.8744V27.5375H57.9152C58.2629 26.9345 58.7669 26.4375 59.3735 26.0993C59.9801 25.761 60.6667 25.5943 61.3602 25.6167C64.1061 25.6168 65.9162 27.7964 65.9162 31.1632ZM63.6335 31.1632C63.6335 28.9636 62.5015 27.5175 60.7744 27.5175C59.0775 27.5175 57.9362 28.9941 57.9362 31.1632C57.9362 33.3523 59.0775 34.8183 60.7744 34.8183C62.5015 34.8183 63.6335 33.3828 63.6335 31.1632Z" fill="#222C34"/>
<path d="M77.8246 31.1632C77.8246 34.5394 76.0251 36.7085 73.3094 36.7085C72.6215 36.7447 71.9374 36.5855 71.3353 36.2494C70.7333 35.9132 70.2377 35.4136 69.9053 34.8077H69.8539V40.189H67.6331V25.7304H69.7827V27.5374H69.8236C70.1713 26.9345 70.6752 26.4375 71.2819 26.0992C71.8885 25.761 72.5751 25.5943 73.2686 25.6167C76.0146 25.6167 77.8246 27.7964 77.8246 31.1632ZM75.5419 31.1632C75.5419 28.9636 74.4099 27.5175 72.6828 27.5175C70.9859 27.5175 69.8446 28.9941 69.8446 31.1632C69.8446 33.3523 70.9859 34.8183 72.6828 34.8183C74.4099 34.8183 75.5419 33.3828 75.5419 31.1632H75.5419Z" fill="#222C34"/>
<path d="M85.6948 32.4434C85.8593 33.9212 87.2889 34.8914 89.2425 34.8914C91.1143 34.8914 92.4611 33.9211 92.4611 32.5887C92.4611 31.432 91.6488 30.7395 89.7256 30.2649L87.8024 29.7996C85.0774 29.1387 83.8124 27.859 83.8124 25.7824C83.8124 23.2113 86.0437 21.4453 89.2121 21.4453C92.3478 21.4453 94.4975 23.2113 94.5698 25.7824H92.328C92.1938 24.2953 90.9696 23.3977 89.1806 23.3977C87.3916 23.3977 86.1674 24.3059 86.1674 25.6277C86.1674 26.6813 86.9493 27.3012 88.862 27.7757L90.497 28.1789C93.5417 28.9019 94.8067 30.1301 94.8067 32.3097C94.8067 35.0976 92.5952 36.8437 89.0779 36.8437C85.7869 36.8437 83.565 35.1386 83.4214 32.4433L85.6948 32.4434Z" fill="#222C34"/>
<path d="M99.5996 23.1602V25.7313H101.657V27.4973H99.5996V33.4867C99.5996 34.4172 100.012 34.8508 100.916 34.8508C101.16 34.8465 101.404 34.8293 101.646 34.7992V36.5547C101.24 36.6309 100.827 36.6655 100.413 36.6578C98.2225 36.6578 97.3683 35.8316 97.3683 33.7246V27.4973H95.7951V25.7313H97.3682V23.1602H99.5996Z" fill="#222C34"/>
<path d="M102.849 31.1641C102.849 27.7457 104.854 25.5977 107.98 25.5977C111.117 25.5977 113.112 27.7457 113.112 31.1641C113.112 34.5918 111.127 36.7305 107.98 36.7305C104.834 36.7305 102.849 34.5918 102.849 31.1641ZM110.85 31.1641C110.85 28.8191 109.779 27.4352 107.98 27.4352C106.18 27.4352 105.111 28.8297 105.111 31.1641C105.111 33.5184 106.18 34.8918 107.98 34.8918C109.779 34.8918 110.85 33.5184 110.85 31.1641H110.85Z" fill="#222C34"/>
<path d="M114.943 25.7303H117.061V27.5795H117.113C117.256 27.002 117.593 26.4916 118.067 26.1341C118.541 25.7767 119.123 25.5939 119.715 25.6166C119.971 25.6157 120.226 25.6436 120.476 25.6998V27.7858C120.153 27.6866 119.816 27.6411 119.478 27.651C119.155 27.6379 118.834 27.695 118.535 27.8185C118.237 27.9419 117.968 28.1288 117.748 28.3663C117.528 28.6037 117.362 28.8862 117.262 29.1942C117.161 29.5022 117.127 29.8285 117.164 30.1506V36.5948H114.943L114.943 25.7303Z" fill="#222C34"/>
<path d="M130.715 33.4047C130.416 35.3769 128.503 36.7305 126.056 36.7305C122.909 36.7305 120.955 34.6129 120.955 31.2156C120.955 27.8078 122.919 25.5977 125.963 25.5977C128.956 25.5977 130.839 27.6625 130.839 30.9566V31.7207H123.197V31.8555C123.162 32.2553 123.212 32.6581 123.343 33.0371C123.475 33.4161 123.686 33.7627 123.961 34.0537C124.236 34.3448 124.57 34.5737 124.94 34.7253C125.31 34.8768 125.708 34.9476 126.108 34.9328C126.632 34.9822 127.159 34.8601 127.609 34.5848C128.059 34.3095 128.409 33.8956 128.606 33.4047L130.715 33.4047ZM123.208 30.1621H128.617C128.637 29.8026 128.582 29.4428 128.457 29.1054C128.332 28.7679 128.139 28.4601 127.89 28.2012C127.641 27.9422 127.341 27.7378 127.009 27.6008C126.678 27.4637 126.321 27.397 125.963 27.4047C125.601 27.4025 125.243 27.4723 124.908 27.61C124.573 27.7477 124.269 27.9506 124.013 28.2069C123.757 28.4633 123.554 28.768 123.416 29.1036C123.277 29.4392 123.207 29.799 123.208 30.1621V30.1621Z" fill="#222C34"/>
<path d="M45.2029 10.4779C45.6685 10.4443 46.1357 10.5149 46.5709 10.6847C47.006 10.8544 47.3982 11.1189 47.7191 11.4593C48.0401 11.7996 48.2818 12.2073 48.4269 12.6528C48.572 13.0983 48.6168 13.5706 48.5581 14.0357C48.5581 16.3232 47.3269 17.6381 45.2029 17.6381H42.6274V10.4779H45.2029ZM43.7349 16.6255H45.0792C45.4119 16.6454 45.7449 16.5906 46.0538 16.4651C46.3628 16.3396 46.64 16.1464 46.8652 15.8998C47.0905 15.6531 47.2581 15.3591 47.356 15.0391C47.4538 14.7192 47.4793 14.3814 47.4307 14.0503C47.4758 13.7205 47.4477 13.3847 47.3483 13.0671C47.249 12.7495 47.081 12.4579 46.8562 12.2132C46.6315 11.9685 46.3556 11.7767 46.0484 11.6516C45.7412 11.5266 45.4102 11.4713 45.0792 11.4897H43.7349V16.6255Z" fill="#222C34"/>
<path d="M49.8091 14.934C49.7753 14.5789 49.8157 14.2206 49.9279 13.8822C50.04 13.5437 50.2214 13.2325 50.4603 12.9685C50.6992 12.7045 50.9905 12.4936 51.3153 12.3493C51.6402 12.2049 51.9915 12.1304 52.3468 12.1304C52.702 12.1304 53.0533 12.2049 53.3782 12.3493C53.703 12.4936 53.9943 12.7045 54.2332 12.9685C54.4722 13.2325 54.6535 13.5437 54.7656 13.8822C54.8778 14.2206 54.9182 14.5789 54.8844 14.934C54.9189 15.2895 54.8789 15.6483 54.7671 15.9873C54.6552 16.3263 54.474 16.6381 54.235 16.9026C53.996 17.1671 53.7045 17.3785 53.3793 17.5231C53.0542 17.6677 52.7024 17.7425 52.3468 17.7425C51.9911 17.7425 51.6394 17.6677 51.3142 17.5231C50.989 17.3785 50.6975 17.1671 50.4585 16.9026C50.2195 16.6381 50.0383 16.3263 49.9265 15.9873C49.8146 15.6483 49.7746 15.2895 49.8091 14.934ZM53.7921 14.934C53.7921 13.7627 53.2681 13.0778 52.3485 13.0778C51.4254 13.0778 50.9061 13.7627 50.9061 14.934C50.9061 16.1147 51.4254 16.7944 52.3485 16.7944C53.2681 16.7944 53.7921 16.11 53.7921 14.934H53.7921Z" fill="#222C34"/>
<path d="M61.6309 17.6379H60.5292L59.4171 13.6582H59.333L58.2256 17.6379H57.1344L55.6511 12.2344H56.7283L57.6922 16.3576H57.7716L58.8779 12.2344H59.8967L61.003 16.3576H61.087L62.0463 12.2344H63.1083L61.6309 17.6379Z" fill="#222C34"/>
<path d="M64.3558 12.2336H65.3781V13.092H65.4575C65.5921 12.7837 65.8191 12.5253 66.107 12.3527C66.3948 12.1802 66.7291 12.1021 67.0633 12.1293C67.3251 12.1096 67.588 12.1492 67.8325 12.2453C68.077 12.3414 68.2968 12.4916 68.4757 12.6846C68.6546 12.8776 68.7879 13.1086 68.8658 13.3603C68.9437 13.6121 68.9642 13.8783 68.9258 14.1391V17.6371H67.8638V14.4069C67.8638 13.5385 67.4881 13.1067 66.7027 13.1067C66.5249 13.0984 66.3474 13.1288 66.1824 13.1958C66.0175 13.2628 65.8689 13.3648 65.7468 13.4948C65.6248 13.6249 65.5322 13.7799 65.4754 13.9493C65.4186 14.1186 65.3989 14.2983 65.4178 14.476V17.6372H64.3558L64.3558 12.2336Z" fill="#222C34"/>
<path d="M70.6182 10.125H71.6802V17.6379H70.6182V10.125Z" fill="#222C34"/>
<path d="M73.1562 14.9336C73.1224 14.5785 73.1629 14.2202 73.275 13.8817C73.3872 13.5432 73.5686 13.232 73.8075 12.968C74.0465 12.704 74.3378 12.4931 74.6626 12.3488C74.9875 12.2044 75.3389 12.1299 75.6941 12.1299C76.0494 12.1299 76.4007 12.2044 76.7256 12.3488C77.0505 12.4931 77.3418 12.704 77.5807 12.968C77.8197 13.232 78.001 13.5432 78.1132 13.8817C78.2254 14.2202 78.2659 14.5785 78.2321 14.9336C78.2665 15.2891 78.2265 15.6479 78.1146 15.9869C78.0027 16.326 77.8214 16.6377 77.5824 16.9022C77.3434 17.1667 77.0519 17.3781 76.7267 17.5227C76.4015 17.6673 76.0498 17.7421 75.6941 17.7421C75.3385 17.7421 74.9867 17.6673 74.6615 17.5227C74.3363 17.3781 74.0448 17.1667 73.8058 16.9022C73.5668 16.6377 73.3855 16.326 73.2736 15.9869C73.1618 15.6479 73.1218 15.2891 73.1562 14.9336ZM77.1392 14.9336C77.1392 13.7624 76.6152 13.0774 75.6956 13.0774C74.7725 13.0774 74.2532 13.7624 74.2532 14.9336C74.2532 16.1143 74.7725 16.794 75.6956 16.794C76.6152 16.794 77.1392 16.1096 77.1392 14.9336H77.1392Z" fill="#222C34"/>
<path d="M79.3501 16.1096C79.3501 15.1369 80.0713 14.5762 81.3515 14.4965L82.8091 14.4121V13.9457C82.8091 13.375 82.4333 13.0527 81.7074 13.0527C81.1146 13.0527 80.7038 13.2713 80.5859 13.6533H79.5578C79.6663 12.7252 80.5357 12.1299 81.7564 12.1299C83.1055 12.1299 83.8664 12.8043 83.8664 13.9457V17.6377H82.8441V16.8783H82.76C82.5895 17.1507 82.35 17.3728 82.0661 17.5218C81.7821 17.6709 81.4638 17.7416 81.1437 17.7267C80.9179 17.7503 80.6895 17.7261 80.4735 17.6557C80.2575 17.5852 80.0586 17.4701 79.8896 17.3178C79.7206 17.1654 79.5853 16.9792 79.4924 16.7711C79.3994 16.563 79.351 16.3376 79.3501 16.1096ZM82.8091 15.6478V15.1961L81.495 15.2805C80.754 15.3303 80.4179 15.5834 80.4179 16.0598C80.4179 16.5461 80.838 16.8291 81.4157 16.8291C81.585 16.8463 81.7559 16.8291 81.9185 16.7786C82.081 16.7281 82.2318 16.6453 82.3618 16.5351C82.4918 16.4249 82.5983 16.2895 82.6752 16.1371C82.752 15.9847 82.7976 15.8183 82.8091 15.6478Z" fill="#222C34"/>
<path d="M85.2621 14.9338C85.2621 13.2264 86.1362 12.1447 87.4957 12.1447C87.832 12.1292 88.1658 12.2101 88.458 12.3779C88.7502 12.5458 88.9888 12.7937 89.1459 13.0927H89.2252V10.125H90.2872V17.6379H89.2696V16.7842H89.1856C89.0163 17.0812 88.7694 17.326 88.4716 17.4922C88.1737 17.6584 87.8363 17.7395 87.4957 17.7269C86.1268 17.727 85.2621 16.6453 85.2621 14.9338ZM86.3591 14.9338C86.3591 16.0799 86.8971 16.7696 87.7969 16.7696C88.6919 16.7696 89.2451 16.07 89.2451 14.9385C89.2451 13.8123 88.6861 13.1028 87.7969 13.1028C86.9029 13.1028 86.3591 13.7971 86.3591 14.9338H86.3591Z" fill="#222C34"/>
<path d="M94.6813 14.934C94.6475 14.5789 94.6879 14.2206 94.8 13.8822C94.9122 13.5437 95.0935 13.2325 95.3325 12.9685C95.5714 12.7045 95.8626 12.4936 96.1875 12.3493C96.5124 12.2049 96.8637 12.1304 97.2189 12.1304C97.5742 12.1304 97.9255 12.2049 98.2504 12.3493C98.5752 12.4936 98.8665 12.7045 99.1054 12.9685C99.3443 13.2325 99.5257 13.5437 99.6378 13.8822C99.75 14.2206 99.7904 14.5789 99.7566 14.934C99.7911 15.2895 99.7511 15.6483 99.6392 15.9873C99.5274 16.3263 99.3462 16.6381 99.1072 16.9026C98.8682 17.1671 98.5767 17.3785 98.2515 17.5231C97.9263 17.6677 97.5746 17.7425 97.2189 17.7425C96.8633 17.7425 96.5115 17.6677 96.1864 17.5231C95.8612 17.3785 95.5697 17.1671 95.3307 16.9026C95.0917 16.6381 94.9105 16.3263 94.7986 15.9873C94.6868 15.6483 94.6468 15.2895 94.6813 14.934ZM98.6643 14.934C98.6643 13.7627 98.1403 13.0778 97.2207 13.0778C96.2976 13.0778 95.7783 13.7627 95.7783 14.934C95.7783 16.1147 96.2976 16.7944 97.2207 16.7944C98.1403 16.7944 98.6643 16.11 98.6643 14.934Z" fill="#222C34"/>
<path d="M101.181 12.2341H102.204V13.0925H102.283C102.418 12.7842 102.645 12.5258 102.933 12.3532C103.221 12.1806 103.555 12.1026 103.889 12.1298C104.151 12.1101 104.414 12.1497 104.658 12.2458C104.903 12.3419 105.122 12.4921 105.301 12.6851C105.48 12.8781 105.614 13.109 105.691 13.3608C105.769 13.6126 105.79 13.8788 105.751 14.1396V17.6376H104.69V14.4074C104.69 13.539 104.314 13.1072 103.528 13.1072C103.351 13.0989 103.173 13.1293 103.008 13.1962C102.843 13.2632 102.695 13.3653 102.572 13.4953C102.45 13.6254 102.358 13.7804 102.301 13.9498C102.244 14.1191 102.225 14.2988 102.243 14.4765V17.6377H101.181V12.2341Z" fill="#222C34"/>
<path d="M111.752 10.8892V12.2591H112.918V13.1573H111.752V15.9358C111.752 16.5019 111.984 16.7497 112.513 16.7497C112.648 16.7493 112.784 16.7411 112.918 16.7251V17.6134C112.727 17.6476 112.534 17.6659 112.34 17.6679C111.159 17.6679 110.689 17.2507 110.689 16.2089V13.1573H109.835V12.259H110.689V10.8892H111.752Z" fill="#222C34"/>
<path d="M114.368 10.125H115.421V13.1027H115.505C115.646 12.7916 115.879 12.5316 116.173 12.3584C116.467 12.1852 116.806 12.1071 117.146 12.1348C117.406 12.1205 117.667 12.1642 117.908 12.2627C118.15 12.3611 118.367 12.5119 118.544 12.7043C118.721 12.8967 118.854 13.126 118.932 13.3758C119.011 13.6255 119.034 13.8896 118.999 14.1492V17.6379H117.936V14.4123C117.936 13.5492 117.536 13.1121 116.785 13.1121C116.603 13.0971 116.419 13.1223 116.247 13.1859C116.076 13.2496 115.92 13.3502 115.791 13.4807C115.662 13.6112 115.562 13.7684 115.5 13.9413C115.438 14.1143 115.414 14.2988 115.43 14.482V17.6379H114.368L114.368 10.125Z" fill="#222C34"/>
<path d="M125.191 16.1793C125.047 16.6731 124.734 17.1003 124.308 17.3861C123.882 17.6719 123.369 17.7981 122.86 17.7426C122.505 17.752 122.153 17.6838 121.827 17.5427C121.502 17.4017 121.21 17.1912 120.974 16.9258C120.737 16.6605 120.561 16.3466 120.458 16.006C120.354 15.6654 120.325 15.3063 120.374 14.9535C120.327 14.5996 120.356 14.2397 120.459 13.8981C120.562 13.5565 120.738 13.2412 120.973 12.9735C121.208 12.7058 121.498 12.492 121.823 12.3466C122.147 12.2011 122.499 12.1274 122.855 12.1305C124.352 12.1305 125.256 13.1577 125.256 14.8545V15.2266H121.456V15.2863C121.439 15.4846 121.464 15.6842 121.529 15.8723C121.593 16.0604 121.696 16.2329 121.831 16.3786C121.966 16.5244 122.13 16.6402 122.312 16.7187C122.494 16.7971 122.691 16.8365 122.889 16.8343C123.143 16.865 123.4 16.819 123.628 16.7024C123.856 16.5857 124.044 16.4036 124.169 16.1793L125.191 16.1793ZM121.456 14.4379H124.174C124.187 14.2565 124.163 14.0744 124.102 13.9031C124.041 13.7318 123.945 13.5753 123.82 13.4434C123.695 13.3116 123.545 13.2074 123.377 13.1376C123.21 13.0678 123.03 13.0339 122.849 13.0381C122.665 13.0358 122.483 13.0704 122.313 13.1399C122.143 13.2095 121.988 13.3125 121.859 13.4429C121.729 13.5734 121.626 13.7286 121.557 13.8995C121.488 14.0704 121.453 14.2534 121.456 14.4379H121.456Z" fill="#222C34"/>
</g>
<defs>
<clipPath id="clip0_119_4450">
<rect width="143" height="48" fill="white"/>
</clipPath>
</defs>
</svg>