<svg width="1999" height="1550" viewBox="0 0 1999 1550" fill="none" xmlns="http://www.w3.org/2000/svg">
<g clip-path="url(#clip0_16_2)">
<path d="M1467.54 986.52C1480.02 977.77 1492.87 969.59 1506.52 962.58C1576.72 926.51 1642.45 889.48 1697.28 832.65C1762.22 765.34 1807.75 674.44 1807.75 579.07C1807.75 483.7 1756.44 385.92 1671.94 346.36C1566.78 297.13 1446.48 343.94 1332.05 355.74C1184.55 370.95 1037.9 326.05 892.33 295.05C746.77 264.04 588.57 248.27 456.37 316.53C349.93 371.49 271.54 480.26 251.06 601.44C230.57 722.62 268.47 853.34 350.32 943.82C468.42 1074.38 654.18 1109.54 826.42 1117.86C953.35 1124 1080.67 1119.58 1206.73 1104.67C1263.59 1097.94 1316.82 1086.38 1367.03 1058.09C1403.15 1037.74 1433.97 1010.05 1467.53 986.51L1467.54 986.52Z" stroke="#F4EBD7" stroke-width="2.6" stroke-miterlimit="10"/>
<path d="M685.9 1106.2C597.23 1095.71 508.01 1074.29 429.66 1027.34C351.31 980.39 284.44 905.44 258.34 813.74C232.25 722.04 252.86 613.99 320.02 552.84C403.6 476.74 527.44 488.84 636.27 468.89C776.56 443.17 899.63 359.89 1025.48 290.26C1151.33 220.63 1293.02 162.19 1433.7 191.66C1546.97 215.39 1649.06 298.54 1701.12 409.45C1753.17 520.36 1753.95 656.41 1703.16 765.81C1629.88 923.65 1468.06 1008.26 1311.37 1063.39C1195.9 1104.01 1077.2 1134.59 956.77 1154.74C912.5 1162.15 867.32 1168.14 822.73 1161.13C778.14 1154.12 733.61 1132.58 706.02 1093.99L685.89 1106.22L685.9 1106.2Z" fill="#F4EBD7"/>
<path d="M0 1283.04H1999.19" stroke="#102048" stroke-width="5" stroke-miterlimit="10"/>
<path opacity="0.15" d="M243.33 1393.81C295.797 1393.81 338.33 1385.71 338.33 1375.72C338.33 1365.73 295.797 1357.63 243.33 1357.63C190.863 1357.63 148.33 1365.73 148.33 1375.72C148.33 1385.71 190.863 1393.81 243.33 1393.81Z" fill="#1F3C88"/>
<path d="M199.75 1340.52C179.19 1340.52 156.31 1310.43 156.31 1290.04C156.31 1269.65 172.84 1252.45 193.15 1252.45C213.46 1252.45 229.99 1269.31 229.99 1290.04C229.99 1309.56 221.78 1340.52 199.75 1340.52ZM193.15 1264.95C179.73 1264.95 168.81 1276.2 168.81 1290.04C168.81 1305.3 187.31 1328.02 199.75 1328.02C211.17 1328.02 217.49 1305.56 217.49 1290.04C217.49 1276.2 206.57 1264.95 193.15 1264.95Z" fill="#1F3C88"/>
<path d="M270.82 1373.04H216.73C207.74 1373.04 200.26 1366.15 199.51 1357.19L188.32 1222.41H301.44L287.99 1357.47C287.11 1366.3 279.68 1373.03 270.8 1373.03L270.82 1373.04Z" fill="#1F3C88"/>
<path d="M201.45 1060.76C197.66 1073.45 195.97 1086.51 198.12 1099.07C199.19 1105.33 200.97 1111.44 203.44 1117.29C205.99 1123.12 209.14 1128.71 212.74 1134.05C216.46 1139.31 220.41 1144.47 224.88 1149.24C225.94 1150.39 227.09 1151.81 228.25 1153.2C229.38 1154.61 230.59 1155.93 231.65 1157.4L234.65 1162.01C235.69 1163.51 236.31 1165.36 237.13 1167.02C238 1168.66 238.42 1170.58 238.96 1172.4C239.59 1174.19 239.69 1176.18 239.92 1178.09C240.07 1179.04 240.04 1180.02 239.95 1181L239.75 1183.91C239.61 1184.87 239.35 1185.81 239.14 1186.76C238.93 1187.71 238.72 1188.65 238.32 1189.53L237.23 1192.18C236.78 1193.02 236.3 1193.83 235.83 1194.64C235.39 1195.48 234.82 1196.21 234.26 1196.96C233.7 1197.7 233.18 1198.47 232.52 1199.11C230.05 1201.88 227.31 1204.11 224.03 1205.96L221.95 1202.65C226.58 1198.57 230.37 1193.09 231.66 1187.45C231.91 1186.76 231.97 1186.04 232.05 1185.32C232.12 1184.6 232.26 1183.9 232.29 1183.19L232.19 1181.05C232.19 1180.34 232.15 1179.63 231.94 1178.93C231.61 1177.52 231.52 1176.1 230.88 1174.74C230.34 1173.37 229.99 1171.97 229.14 1170.68C228.36 1169.38 227.81 1168.02 226.88 1166.78L224.2 1163.03C223.24 1161.81 222.1 1160.69 221.07 1159.51L217.75 1155.89C215.38 1153.34 213.01 1150.79 210.83 1148.04C208.54 1145.4 206.53 1142.5 204.51 1139.63C200.69 1133.72 197.12 1127.56 194.59 1120.89C192.08 1114.22 190.29 1107.24 189.65 1100.12C188.19 1085.85 191.58 1071.52 197.84 1059.27L201.46 1060.75L201.45 1060.76Z" fill="#D3DFFF"/>
<path d="M250.58 1056.9C257.58 1062.63 263.3 1070.62 265.94 1079.83C267.32 1084.4 267.91 1089.18 267.98 1093.93C268.05 1098.69 267.28 1103.36 266.34 1107.93C265.27 1112.47 263.75 1116.85 261.98 1121.07L260.8 1123.97C260.45 1124.88 260.02 1125.78 259.72 1126.69L258.96 1129.42C258.68 1130.34 258.65 1131.21 258.46 1132.11C258.23 1133.03 258.32 1133.87 258.28 1134.74C258.18 1135.64 258.42 1136.43 258.5 1137.28C258.53 1138.15 258.93 1138.87 259.1 1139.72C259.47 1140.46 259.74 1141.28 260.25 1141.98C261.99 1144.93 265.32 1147.43 268.8 1149.01L268.03 1152.84C263.07 1152.32 258.44 1150.21 254.74 1146.29C253.81 1145.34 253.11 1144.17 252.36 1143.05C251.81 1141.84 251.05 1140.64 250.73 1139.34C250.38 1138.05 249.95 1136.73 249.89 1135.43C249.77 1134.13 249.56 1132.78 249.69 1131.53C249.79 1130.27 249.72 1128.93 250 1127.73L250.75 1124.08C251.05 1122.89 251.47 1121.78 251.83 1120.62C252.22 1119.47 252.58 1118.28 252.94 1117.38C254.5 1113.53 255.63 1109.57 256.65 1105.63C257.59 1101.68 258.18 1097.69 258.42 1093.71C258.61 1089.73 258.33 1085.77 257.65 1081.85C256.27 1073.99 252.58 1066.58 247.73 1059.56L250.58 1056.88V1056.9Z" fill="#D3DFFF"/>
<path opacity="0.15" d="M1686.46 1402.64C1791.39 1402.64 1876.46 1390.05 1876.46 1374.51C1876.46 1358.97 1791.39 1346.38 1686.46 1346.38C1581.53 1346.38 1496.46 1358.97 1496.46 1374.51C1496.46 1390.05 1581.53 1402.64 1686.46 1402.64Z" fill="#1F3C88"/>
<path d="M1698.56 916.39H1671.89V1177.22H1698.56V916.39Z" fill="#27481F"/>
<path d="M1691.88 898.86C1691.53 917.73 1689.78 933.63 1688.31 943.91C1687.18 951.81 1686.23 956.36 1686.23 956.36C1613.43 932.73 1580.03 887.61 1566.13 842.08C1564.83 837.93 1563.73 833.76 1562.78 829.6C1548.08 766.25 1567.78 705.9 1567.78 705.9C1601.15 712.87 1625.83 727.42 1643.95 746.15C1647.07 749.35 1649.97 752.65 1652.7 756.08C1686.25 798.13 1692.68 856.1 1691.87 898.85L1691.88 898.86Z" fill="#49883A"/>
<path d="M1786.26 772.76C1784.81 823.41 1765.11 882.41 1704.01 939.06C1699.34 943.41 1694.38 947.76 1689.19 952.08C1688.64 952.56 1688.09 953.01 1687.54 953.46C1687.54 953.46 1677.42 938.61 1666.99 914.46C1666.84 914.11 1666.69 913.78 1666.56 913.43C1662.91 904.9 1659.24 895.23 1655.99 884.66C1653.31 876.04 1650.92 866.84 1648.99 857.14C1641.64 819.87 1641.61 775.66 1661.94 731.91C1677.19 698.96 1703.99 666.29 1747.84 636.96C1747.84 636.96 1788.52 695.06 1786.26 772.76Z" fill="#49883A"/>
<path opacity="0.5" d="M1704.01 939.06C1699.34 943.41 1694.38 947.76 1689.19 952.08C1688.64 952.56 1688.09 953.01 1687.54 953.46C1687.54 953.46 1677.42 938.61 1666.99 914.46C1666.85 914.13 1666.71 913.77 1666.56 913.44C1665.68 911.38 1664.8 909.25 1663.92 907.06C1663.59 906.22 1663.26 905.34 1662.92 904.49C1662.35 903.02 1661.77 901.57 1661.21 900.05C1660.77 898.86 1660.34 897.61 1659.9 896.38C1659.44 895.1 1658.98 893.84 1658.53 892.52C1657.66 889.96 1656.81 887.35 1655.99 884.67C1653.31 876.05 1650.92 866.85 1648.99 857.15C1642.99 826.75 1641.86 791.73 1652.71 756.1C1649.98 752.67 1647.09 749.37 1643.96 746.17C1636.95 764.66 1625.57 807.06 1624.22 845.29C1607.39 838.69 1587.15 833.29 1562.79 829.62C1563.74 833.77 1564.84 837.95 1566.14 842.1C1555.76 839.62 1544.54 837.45 1532.42 835.65C1541.99 868.3 1580.39 972.3 1680.6 973.85C1683.15 973.9 1685.72 973.87 1688.35 973.77C1692.48 973.64 1696.7 973.32 1701.05 972.82C1701.05 972.82 1705.55 958.64 1704.03 939.07L1704.01 939.06Z" fill="#27481F"/>
<path d="M1688.96 968.31C1688.96 968.39 1688.96 968.48 1688.94 968.56C1688.89 969.18 1688.84 969.79 1688.76 970.36C1688.71 970.64 1688.69 970.91 1688.66 971.19C1688.61 971.67 1688.56 972.11 1688.49 972.56C1688.31 973.94 1688.11 975.21 1687.91 976.44C1687.79 977.24 1687.63 978.02 1687.48 978.77C1686.16 985.5 1684.66 989.5 1684.66 989.5C1677.53 989.95 1670.73 989.92 1664.18 989.48C1545.55 981.53 1521.2 834.08 1521.2 834.08C1525.02 834.56 1528.75 835.08 1532.4 835.66C1544.52 837.46 1555.75 839.63 1566.12 842.11C1609 852.31 1637.37 867.69 1655.97 884.69C1661.57 889.79 1666.27 895.06 1670.19 900.36C1681.19 915.16 1686.31 930.36 1688.29 943.94C1688.71 946.74 1688.99 949.46 1689.17 952.11C1689.54 958.01 1689.39 963.49 1688.94 968.34L1688.96 968.31Z" fill="#49883A"/>
<path opacity="0.38" d="M1786.26 772.76C1785.54 798.09 1780.24 825.49 1767.49 853.66C1754.77 881.84 1734.57 910.74 1704.02 939.06C1703.89 939.16 1703.77 939.28 1703.64 939.39C1701.84 941.06 1699.99 942.74 1698.09 944.41C1697.54 944.91 1696.99 945.41 1696.41 945.91C1694.06 947.96 1691.66 950.03 1689.19 952.08C1689.01 949.43 1688.74 946.71 1688.31 943.91C1686.33 930.33 1681.21 915.14 1670.21 900.33C1666.29 895.03 1661.59 889.76 1655.99 884.66C1653.31 876.04 1650.92 866.84 1648.99 857.14C1655.76 861.09 1661.76 865.26 1667.01 869.61C1670.74 872.66 1674.04 875.79 1677.06 878.96C1692.68 838.09 1724.16 796.24 1786.26 772.76Z" fill="#27481F"/>
<path opacity="0.2" d="M1688.96 968.31C1688.96 968.39 1688.96 968.48 1688.94 968.56C1688.89 969.18 1688.84 969.79 1688.76 970.36C1688.71 970.64 1688.69 970.91 1688.66 971.19C1688.61 971.67 1688.56 972.11 1688.49 972.56C1688.31 973.94 1688.11 975.21 1687.91 976.44C1687.76 977.24 1687.63 978.02 1687.48 978.77C1686.16 985.5 1684.66 989.5 1684.66 989.5C1677.53 989.95 1670.73 989.92 1664.18 989.48C1663.08 981.3 1659.9 950.88 1666.98 914.48C1667.88 909.86 1668.95 905.13 1670.2 900.35C1681.2 915.15 1686.32 930.35 1688.3 943.93C1688.72 946.73 1689 949.45 1689.18 952.1C1689.55 958 1689.4 963.48 1688.95 968.33L1688.96 968.31Z" fill="#27481F"/>
<path d="M1803.13 1143.89L1773.81 1335.84C1770.54 1357.24 1752.14 1373.04 1730.49 1373.04H1642.44C1623.26 1373.04 1606.62 1360.64 1600.82 1342.92C1600.07 1340.65 1599.49 1338.27 1599.12 1335.84L1569.8 1143.89H1803.15H1803.13Z" fill="#FBC343"/>
<path d="M1681.58 989.72C1681.58 989.72 1649.45 799.16 1853.8 771.69C1853.8 771.69 1866.62 980.5 1681.58 989.72Z" fill="#49883A"/>
<path opacity="0.4" d="M1803.13 1143.89L1773.81 1335.84C1770.54 1357.24 1752.14 1373.04 1730.49 1373.04H1642.44C1623.26 1373.04 1606.62 1360.64 1600.82 1342.92C1715.14 1324.59 1745.79 1206.9 1752 1143.9H1803.15L1803.13 1143.89Z" fill="#C89B35"/>
<path opacity="0.15" d="M1378.27 1376.83C1378.27 1353.38 1169.4 1334.38 911.75 1334.38C654.1 1334.38 445.23 1353.39 445.23 1376.83C445.23 1395.85 582.65 1411.94 772.05 1417.35C792.68 1451.19 758.25 1491.66 731.86 1506.26C685.52 1508.57 652.27 1513.73 657.51 1524.73C682.27 1576.73 892.72 1521.4 892.72 1521.4C892.72 1521.4 975.01 1526.52 975.01 1518.69C975.01 1515.09 960.52 1511.8 936.68 1509.3L938.44 1509.2L849.6 1418.92C869.94 1419.17 890.68 1419.3 911.76 1419.3C1169.41 1419.3 1378.28 1400.29 1378.28 1376.85L1378.27 1376.83Z" fill="#1F3C88"/>
<path d="M1419.48 1064.99C1413.33 1166.46 1362.18 1267.86 1278.33 1323.66C1178.38 1390.18 1038.63 1375.46 924.81 1383.93C826.41 1391.26 727.26 1397.55 628.83 1387.08C548.18 1378.48 466.83 1346.53 428.3 1268.23C389.7 1189.75 385.53 1085.48 424.12 1006.05C436.42 980.7 452.9 958.17 472.27 938.53C475.42 935.3 478.7 932.15 482.02 929.08C484.27 927.01 486.54 924.96 488.87 922.96C492.42 919.88 496.07 916.88 499.77 913.96C500.99 913.01 502.22 912.06 503.47 911.11C504.7 910.16 505.95 909.23 507.2 908.31C508.45 907.39 509.7 906.46 510.97 905.56C511.92 904.88 512.87 904.21 513.82 903.54C515.39 902.41 516.99 901.31 518.62 900.24C533 890.54 548.15 882.02 563.77 874.69C578.97 867.52 594.62 861.46 610.37 856.57C662.15 840.5 716.22 834.8 769.65 827.77C883.02 812.89 998.45 807.82 1112.72 807.89C1205.97 807.92 1310.97 821.87 1373.32 901.91C1408.52 947.11 1422.99 1007.19 1419.47 1064.99H1419.48Z" fill="#EE6F57"/>
<path d="M1227.51 893.6C1227.51 893.6 1251.56 871.01 1264.31 857.93C1277.06 844.85 1249.25 844.43 1235.54 860.73C1221.83 877.03 1227.51 893.61 1227.51 893.61V893.6Z" fill="#F9B384"/>
<path d="M563.78 874.69C548.16 882.02 533 890.54 518.63 900.24C517 901.32 515.41 902.42 513.83 903.54C512.88 904.22 511.93 904.89 510.98 905.56C509.71 906.46 508.46 907.38 507.21 908.31C505.96 909.24 504.71 910.16 503.48 911.11C502.23 912.06 501 913.01 499.78 913.96C496.13 916.86 492.55 919.84 489.03 922.89L488.88 922.97C486.55 924.97 484.28 927.02 482.03 929.09C478.71 932.17 475.43 935.32 472.28 938.54C472.55 941.19 474.28 943.74 477.11 944.32C495.87 948.12 505.27 966.02 520.39 976.2C531.61 983.75 544.88 985.83 557.58 981.5C543.91 1010.46 536.36 1039.18 542.27 1071.6C544.07 1081.4 547.18 1090.94 551.43 1099.95C533.86 1086.9 516.93 1058.94 509.97 1030.59C508.98 1026.57 504.92 1024.04 500.9 1025.1C496.88 1026.09 494.42 1030.15 495.4 1034.17C504.02 1069.27 525.96 1103 548.75 1116.19C554.18 1119.33 559.69 1121.33 565.15 1122.25C569.67 1128.04 574.71 1133.41 580.24 1138.23L613.94 1147.65L641.44 970.15L563.76 874.7L563.78 874.69Z" fill="#B35341"/>
<path d="M661.46 993.89C591.78 966.75 543.41 937.89 515.33 918.68C497.13 906.22 487.92 884.26 491.65 862.52L527.58 653.08C531.28 631.52 545.57 613.2 565.67 604.58C623.31 579.86 679.44 565.74 728.96 558.89C728.96 558.89 756.7 556.65 792.08 560.14C815.36 562.44 868.67 578.14 902.55 588.67C921.69 594.62 937.06 608.95 944.31 627.64C958.52 664.26 981.6 726.1 988.96 759.52C1014.38 874.94 1010.21 866.4 1010.21 866.4L1036.46 1043.9L757.71 1059.52L686.46 1027.02L661.46 993.9V993.89Z" fill="#708CD5"/>
<path d="M833.96 359.51C833.96 359.51 809.27 308.89 743.65 332.01C696.15 321.7 659.9 377.95 694.9 454.51L760.84 469.82L833.96 359.51Z" fill="#102048"/>
<path d="M798.96 502.64V592.19C798.96 613.14 781.96 630.14 761.01 630.14C732.61 630.14 709.59 607.11 709.59 578.71V502.64H798.96Z" fill="#F9B384"/>
<path d="M798.96 539.79V588.64C759.14 588.84 732.71 537.34 732.71 537.34L798.96 539.79Z" fill="#E28B6D"/>
<path d="M838.36 491.36C835.96 503.76 832.54 516.46 827.61 527.63C819.01 547.25 805.89 562.2 785.84 562.63C738.91 563.63 702.72 499.51 702.72 499.51L710.22 412.01L745.84 372.01L843.96 432.63C843.96 432.63 844.23 461.08 838.36 491.36Z" fill="#F9B384"/>
<path d="M708.65 473.89C708.65 473.89 718.34 434.51 752.09 408.89C752.09 408.89 801.15 472.95 853.03 442.01C904.91 411.07 882.4 350.13 833.97 359.51L778.35 353.26L708.66 375.45L696.79 430.14L708.66 473.89H708.65Z" fill="#102048"/>
<path opacity="0.4" d="M757.9 927.69C710.63 825.55 651.05 874.3 636.46 836.8C616.03 784.26 619.9 724.81 619.79 706.8L591.32 867.11C591.32 867.11 654.88 873.15 678.39 911.43L757.9 927.69Z" fill="#1F3C88"/>
<path d="M621.24 704.07C619.47 717.78 617.38 731.44 615.22 745.09C613.12 758.75 610.65 772.34 608.39 785.97C606.02 799.58 603.52 813.17 600.86 826.72L596.79 847.04C595.32 853.79 593.95 860.57 592.36 867.3L590.29 866.93C591.12 860.06 592.15 853.23 593.09 846.38L596.24 825.89C598.39 812.24 600.71 798.62 603.15 785.03C605.7 771.45 608.04 757.84 610.76 744.29C613.41 730.73 616.14 717.19 619.18 703.69L621.25 704.06L621.24 704.07Z" fill="#1F3C88"/>
<path d="M897.42 678.72C901.2 696.53 904.7 714.4 908.12 732.27C911.6 750.14 914.74 768.06 918.06 785.96C921.23 803.88 924.34 821.81 927.35 839.76L931.71 866.71C933.06 875.71 934.5 884.7 935.74 893.72L933.82 894.06C931.87 885.16 930.12 876.23 928.27 867.32L923.05 840.52C919.68 822.63 916.4 804.73 913.18 786.82C910.12 768.88 906.87 750.97 903.96 733.01C900.99 715.05 898.1 697.08 895.49 679.06L897.41 678.72H897.42Z" fill="#1F3C88"/>
<path opacity="0.4" d="M910.63 761.39C913.96 793.89 908.96 962.22 830.63 964.72L831.46 1001.39L954.79 993.89L910.62 761.39H910.63Z" fill="#1F3C88"/>
<path d="M749.58 960.14C805.2 936.39 815.84 937.27 823.33 937.64C848.95 938.89 885.83 990.14 885.83 990.14L885.21 999.52H744.59L749.59 960.14H749.58Z" fill="#E28B6D"/>
<path d="M963.54 990.35H790.42V1016.6H963.54V990.35Z" fill="white"/>
<path d="M1198.96 1016.62H898.13L965.63 747.78H1266.46L1198.96 1016.62Z" fill="#FBC343"/>
<path d="M1226.22 906.67C1196.46 902.22 1100.21 882.22 901.87 1003.06L897.29 1019.73L1198.96 1016.63L1226.22 906.68V906.67Z" fill="#C89B35"/>
<path d="M1231.93 966.39C1230.06 979.05 1229.43 997.64 1190.21 995.3L1178.65 989.36L1189.59 977.33L1213.18 965.3L1231.93 966.39Z" fill="#F9B384"/>
<path d="M1235.63 932.22C1235.63 932.22 1257.09 960.26 1235.53 968.89C1212.09 978.27 1189.59 977.33 1189.59 977.33C1199.59 949.21 1232.09 951.08 1232.09 951.08L1235.63 932.23V932.22Z" fill="#F9B384"/>
<path d="M1236.25 914.1C1236.25 914.1 1265.83 941.6 1238.33 949.31C1199.49 960.2 1187.5 960.98 1187.5 960.98C1185.42 940.36 1223.96 927.02 1223.96 927.02L1236.25 914.1Z" fill="#F9B384"/>
<path d="M1230.21 890.14C1230.21 890.14 1270.63 914.72 1232.71 928.47C1194.79 942.22 1185.84 942.01 1185.84 942.01C1183.76 921.39 1224.38 914.3 1224.38 914.3L1230.21 890.13V890.14Z" fill="#F9B384"/>
<path d="M1185.83 942.01C1185.83 942.01 1229.89 935.76 1243.02 925.13" stroke="#E28B6D" stroke-width="2.5" stroke-miterlimit="10"/>
<path d="M1187.5 960.97C1187.5 960.97 1233.33 954.51 1247.71 944.51" stroke="#E28B6D" stroke-width="2.5" stroke-miterlimit="10"/>
<path d="M1189.58 977.32C1189.58 977.32 1216.77 978.26 1232.08 970.76" stroke="#E28B6D" stroke-width="2.5" stroke-miterlimit="10"/>
<path d="M762.71 1371.39C767.29 1368.89 839.79 1384.72 920.21 1325.14L816.46 1295.56L762.71 1371.39Z" fill="#102048"/>
<path d="M1223.38 1027.26C1226.83 1022.34 1229.81 1015.09 1225.45 1010.94C1220.93 1006.59 1213.53 1010.42 1208.78 1014.52C1200.41 1021.72 1192.8 1029.62 1185.78 1038.02L1010.63 1070.57L770.63 1128.9L811.89 1181.57C931.89 1190.32 1000.24 1192.57 1075.33 1179.32C1113.61 1172.57 1147.82 1165.6 1173.35 1144.8C1179.42 1139.82 1185.17 1131.47 1181.22 1124.7C1178.55 1120.13 1173 1118.93 1167.42 1118.97C1180.24 1115.95 1192.69 1111.52 1204.52 1105.75C1209.8 1103.2 1215.67 1099.2 1215.55 1093.35C1215.48 1089.15 1212.08 1085.6 1208.18 1084.1C1204.28 1082.6 1199.98 1082.72 1195.81 1083.03C1179.81 1084.23 1163.99 1087.73 1148.96 1093.38C1176.31 1074.28 1204.13 1054.51 1223.38 1027.28V1027.26ZM1148.58 1093.61C1148.58 1093.56 1148.61 1093.53 1148.66 1093.48C1148.73 1093.46 1148.83 1093.43 1148.91 1093.38C1148.81 1093.45 1148.69 1093.53 1148.59 1093.61H1148.58Z" fill="#B35341"/>
<path d="M821.46 1050.14C821.46 1050.14 1055.21 938.89 1131.46 943.89C1207.71 948.89 1205.21 1043.89 1176.46 1085.14C1147.71 1126.39 1080.21 1181.39 831.46 1165.14L821.46 1050.14Z" fill="#102048"/>
<path d="M938.43 1509.19C925.78 1512.77 907.83 1513.64 883.13 1509.71C883.13 1509.71 851.13 1518.01 819.63 1524.54C798.31 1528.96 777.23 1532.56 766.46 1532.21C765.54 1532.19 764.61 1532.14 763.66 1532.06C742.99 1530.59 716.94 1519.81 703.11 1504.41C703.09 1504.36 703.06 1504.31 703.01 1504.29C699.21 1500.04 696.34 1495.42 694.79 1490.57C687.29 1467.22 703.14 1438.9 788.96 1444.72C788.96 1444.72 817.28 1438.07 823.96 1417.22C830.63 1396.4 781.46 1296.4 781.46 1296.4L851.46 1248.9L920.21 1325.15C920.21 1325.15 930.63 1393.9 930.63 1416.4C930.63 1416.4 959.78 1458.07 963.96 1476.4C966.63 1488.1 960.78 1502.87 938.43 1509.2V1509.19Z" fill="#D3DFFF"/>
<path d="M544.86 876.02C552.88 872.93 561.05 870.44 569.31 868.15C573.44 867.02 577.61 865.96 581.84 865.13C583.96 864.7 586.09 864.34 588.26 864.04C589.35 863.89 590.43 863.78 591.57 863.69C592.77 863.63 593.95 863.64 595.07 863.76C604.05 864.7 612.19 867.52 620.28 870.51C628.32 873.58 636.2 877.01 643.93 880.72C651.69 884.39 659.23 888.47 666.66 892.76C674.08 897.05 681.38 901.55 688.48 906.37C702.58 916.1 716.15 926.79 727.83 939.39L726.35 940.88C720.07 935.19 713.52 929.82 706.72 924.79C699.97 919.69 692.98 914.91 685.84 910.37C671.67 901.11 656.79 892.97 641.64 885.46C634.06 881.71 626.34 878.24 618.51 875.15C610.68 872.22 602.66 869.08 594.68 868C593.68 867.86 592.73 867.83 591.81 867.83C590.82 867.88 589.78 867.96 588.76 868.07C586.7 868.3 584.63 868.59 582.56 868.95C578.42 869.67 574.28 870.51 570.15 871.44C561.9 873.32 553.67 875.51 545.59 878.01L544.88 876.03L544.86 876.02Z" fill="#1F3C88"/>
<path d="M586.46 1203.26C614.58 1201.38 642.22 1203.4 662.29 1196.38C683.75 1188.88 739.79 1193.88 739.79 1193.88L708.96 1149.5L583.96 1180.75L586.46 1203.25V1203.26Z" fill="#B35341"/>
<path d="M587.71 1121.39C558.96 1075.14 558.96 983.89 595.21 942.64C636.64 895.5 725.21 877.64 771.46 932.64C817.71 987.64 902.71 1188.89 920.21 1325.14C920.21 1325.14 826.46 1293.89 762.71 1371.39C762.71 1371.39 678.96 1180.14 661.46 1110.14L613.96 1147.64L587.71 1121.39Z" fill="#1F3C88"/>
<path d="M661.46 1110.14C661.46 1110.14 648.96 1105.56 631.46 1117.22C631.46 1117.22 494.79 1114.3 464.38 1145.14C433.96 1175.97 457.3 1217.22 501.88 1221.81C539.3 1225.66 611.94 1196.63 634.32 1187.2C638.87 1185.29 643.7 1184.13 648.62 1183.81L685.63 1181.39L661.46 1110.14Z" fill="#D3DFFF"/>
<path d="M716.04 476.44C716.04 476.44 706.87 446.06 686.71 453.66C666.54 461.25 677.28 500.8 717.09 511.8L716.04 476.45V476.44Z" fill="#F9B384"/>
<path d="M694.56 643.95C704.51 650.97 715.12 657.01 726.37 661.29C737.61 665.5 749.47 668.17 761.37 667.89C773.24 667.75 784.99 664.82 795.6 659.39L799.59 657.36C800.9 656.64 802.1 655.73 803.36 654.93C805.85 653.27 808.43 651.7 810.65 649.66L814.16 646.81L815.92 645.38C816.49 644.89 817 644.32 817.54 643.8C819.67 641.66 821.84 639.53 824.04 637.42L825.53 638.68C823.56 641.06 821.56 643.42 819.52 645.77C819.01 646.35 818.53 646.97 817.98 647.52L816.29 649.12L812.89 652.33C810.68 654.55 808.09 656.31 805.57 658.17C804.29 659.07 803.08 660.08 801.74 660.9L797.65 663.24C786.69 669.42 774.05 672.76 761.42 672.83C748.79 672.86 736.26 670.12 724.79 665.19C713.29 660.31 702.71 653.54 693.35 645.48L694.55 643.94L694.56 643.95Z" fill="#1F3C88"/>
<path d="M640.74 1030.33L651.57 1068.23C655.25 1080.84 658.7 1093.51 662.55 1106.06C666.32 1118.63 670.07 1131.2 674.03 1143.71C676.01 1149.96 677.96 1156.23 680.13 1162.41C681.19 1165.51 682.14 1168.66 683.26 1171.73C684.38 1174.81 685.47 1177.9 686.53 1181.01L684.73 1181.76C681.94 1175.78 679.32 1169.72 676.85 1163.6C674.39 1157.48 672.16 1151.27 669.89 1145.08C665.45 1132.66 661.52 1120.08 657.8 1107.44C654.19 1094.77 650.63 1082.1 647.49 1069.31C644.32 1056.53 641.33 1043.71 638.83 1030.77L640.73 1030.32L640.74 1030.33Z" fill="#102048"/>
<path opacity="0.1" d="M938.43 1509.19C925.78 1512.77 907.83 1513.64 883.13 1509.71C883.13 1509.71 830.21 1523.26 796.77 1528.57C831.14 1521.69 881.14 1479.19 875.52 1452.32C924.89 1468.57 938.33 1493.26 938.43 1509.18V1509.19Z" fill="#1F3C88"/>
<path opacity="0.4" d="M805.51 1513.89C799.14 1521.74 789.64 1527.06 779.66 1529.74C774.43 1531.14 769.06 1531.89 763.66 1532.07C742.99 1530.6 716.94 1519.82 703.11 1504.42C703.09 1504.37 703.06 1504.32 703.01 1504.3C701.54 1502.3 700.16 1500.22 698.96 1498.08C706.31 1504.93 714.31 1510.53 722.94 1514.81C727.26 1516.86 731.64 1518.83 736.21 1520.21C738.43 1521.06 740.76 1521.56 743.06 1522.21C745.33 1522.91 747.71 1523.18 750.06 1523.61C768.73 1526.76 788.56 1524.81 805.51 1513.91V1513.89Z" fill="#1F3C88"/>
<path d="M706.98 480.75C706.52 478.02 705.23 475.47 703.72 473.15C702.18 470.85 700.34 468.71 698.21 467.2C696.08 465.71 693.77 464.97 691.82 466.02C689.77 467.04 688.15 469.52 686.74 472.04L685.36 471.56C685.96 468.6 687.05 465.33 690.16 463.18C691.69 462.11 693.79 461.73 695.61 462.06C697.44 462.39 699.04 463.18 700.39 464.16C703.09 466.15 705.07 468.73 706.5 471.55C707.89 474.36 708.9 477.53 708.45 480.78L706.98 480.75Z" fill="#E28B6D"/>
<path d="M825.93 479.99C825.05 484.3 821.8 487.28 818.67 486.64C815.54 486 813.72 481.99 814.6 477.68C815.48 473.37 818.73 470.39 821.86 471.03C824.99 471.67 826.81 475.68 825.93 479.99Z" fill="#102048"/>
<path d="M777.204 478.088C777.912 473.744 775.932 469.805 772.782 469.292C769.631 468.778 766.503 471.883 765.794 476.228C765.086 480.572 767.066 484.51 770.217 485.024C773.367 485.538 776.496 482.432 777.204 478.088Z" fill="#102048"/>
<path d="M797.89 483.96C798.19 487.51 798.33 491.04 798.37 494.5C798.51 495.82 799.13 496.95 800.23 498.16C801.3 499.35 802.67 500.6 803.86 502.34C804.46 503.2 804.92 504.29 805.15 505.37C805.4 506.44 805.43 507.51 805.36 508.55C805.18 510.63 804.45 512.68 803.06 514.36C802.38 515.21 801.48 515.9 800.49 516.41C799.47 516.85 798.36 517.13 797.3 517.08C795.16 516.99 793.33 516.16 791.8 515.09L792.49 513.8C794.11 514.33 795.73 514.73 797.15 514.46C798.57 514.26 799.69 513.51 800.45 512.34C801.98 510.06 802.2 506.49 800.73 504.37C799.96 503.14 798.68 501.98 797.47 500.45C796.25 499.01 795.08 496.83 795.16 494.56C795.43 490.93 795.86 487.37 796.42 483.83L797.88 483.95L797.89 483.96Z" fill="#E28B6D"/>
<path d="M757.59 463.03C759.58 461.04 761.95 459.39 764.61 458.21C767.26 457.02 770.26 456.36 773.31 456.55C776.36 456.73 779.35 457.86 781.73 459.63C784.13 461.39 785.98 463.68 787.35 466.14L786.19 467.04C784.12 465.28 782.13 463.63 779.95 462.4C777.78 461.18 775.45 460.43 773.05 460.27C768.2 459.9 763.27 461.83 758.45 464.22L757.59 463.03Z" fill="#102048"/>
<path d="M808.46 467.31C809.29 464.65 811.5 462.55 813.94 461.3C816.4 460.01 819.17 459.47 821.92 459.52C824.66 459.58 827.42 460.29 829.81 461.69C832.2 463.07 834.18 465.19 835.21 467.65L833.98 468.45C830.58 465.03 826.31 463.4 821.82 463.25C817.4 463.15 812.71 464.37 809.78 467.96L808.47 467.31H808.46Z" fill="#102048"/>
<path d="M774.33 526.02L807.49 528.38C807.49 528.38 788.99 552.92 774.33 526.02Z" fill="white"/>
<path opacity="0.4" d="M838.36 491.36C835.96 503.76 832.54 516.46 827.61 527.63C821.14 524.58 816.66 517.98 816.66 510.33C816.66 499.76 825.26 491.18 835.83 491.18C836.68 491.18 837.53 491.23 838.35 491.36H838.36Z" fill="#EE6F57"/>
<path opacity="0.4" d="M761.381 523.65C771.142 519.55 775.732 508.314 771.633 498.552C767.534 488.791 756.297 484.201 746.536 488.3C736.774 492.399 732.184 503.636 736.284 513.397C740.383 523.159 751.619 527.749 761.381 523.65Z" fill="#EE6F57"/>
<path d="M484.39 468.08C505.41 444.81 518.22 413.97 518.22 380.14C518.22 307.65 459.45 248.88 386.96 248.88C314.47 248.88 255.7 307.65 255.7 380.14C255.7 452.63 314.47 511.4 386.96 511.4C403.75 511.4 419.78 508.21 434.54 502.47L505 531.23L484.39 468.08Z" fill="white" stroke="#8CBFBE" stroke-width="3.5" stroke-miterlimit="10"/>
<path d="M328.35 397.32C336.093 397.32 342.37 391.043 342.37 383.3C342.37 375.557 336.093 369.28 328.35 369.28C320.607 369.28 314.33 375.557 314.33 383.3C314.33 391.043 320.607 397.32 328.35 397.32Z" fill="#8CBFBE"/>
<path d="M386.96 397.32C394.703 397.32 400.98 391.043 400.98 383.3C400.98 375.557 394.703 369.28 386.96 369.28C379.217 369.28 372.94 375.557 372.94 383.3C372.94 391.043 379.217 397.32 386.96 397.32Z" fill="#8CBFBE"/>
<path d="M445.57 397.32C453.313 397.32 459.59 391.043 459.59 383.3C459.59 375.557 453.313 369.28 445.57 369.28C437.827 369.28 431.55 375.557 431.55 383.3C431.55 391.043 437.827 397.32 445.57 397.32Z" fill="#8CBFBE"/>
<path d="M820 9.86011H561.83C547.19 9.86011 535.21 21.8401 535.21 36.4801V147.26C535.21 161.9 547.19 173.88 561.83 173.88H585.67L624.42 232.12L635.94 173.88H820C834.64 173.88 846.62 161.9 846.62 147.26V36.4801C846.62 21.8401 834.64 9.86011 820 9.86011Z" fill="white" stroke="#8CBFBE" stroke-width="3.5" stroke-miterlimit="10"/>
<path d="M801.49 50.1902H580.35V62.8902H801.49V50.1902Z" fill="#8CBFBE"/>
<path d="M801.49 83.6902H580.35V96.3902H801.49V83.6902Z" fill="#C6EAE9"/>
<path d="M801.49 117.18H580.35V129.88H801.49V117.18Z" fill="#C6EAE9"/>
<path d="M1058.44 36V606.17V670.32L1132.97 606.17H1651.82V36H1058.44Z" fill="white"/>
<path d="M1058.44 36V606.17V670.32L1132.97 606.17H1651.82V36H1058.44Z" stroke="#8CBFBE" stroke-opacity="0.24" stroke-width="3.5" stroke-miterlimit="10"/>
<path d="M1401.19 106.38H1132.47C1126.9 106.38 1122.39 101.87 1122.39 96.3C1122.39 90.73 1126.9 86.22 1132.47 86.22H1401.19C1406.76 86.22 1411.27 90.73 1411.27 96.3C1411.27 101.87 1406.76 106.38 1401.19 106.38Z" fill="#8CBFBE" fill-opacity="0.24"/>
<path d="M1585.79 361.15H1211.85C1206.28 361.15 1201.77 356.64 1201.77 351.07C1201.77 345.5 1206.28 340.99 1211.85 340.99H1585.79C1591.36 340.99 1595.87 345.5 1595.87 351.07C1595.87 356.64 1591.36 361.15 1585.79 361.15Z" fill="#8CBFBE" fill-opacity="0.24"/>
<path d="M1585.79 428.59H1211.85C1206.28 428.59 1201.77 424.08 1201.77 418.51C1201.77 412.94 1206.28 408.43 1211.85 408.43H1585.79C1591.36 408.43 1595.87 412.94 1595.87 418.51C1595.87 424.08 1591.36 428.59 1585.79 428.59Z" fill="#8CBFBE" fill-opacity="0.24"/>
<path d="M1585.79 492.57H1211.85C1206.28 492.57 1201.77 488.06 1201.77 482.49C1201.77 476.92 1206.28 472.41 1211.85 472.41H1585.79C1591.36 472.41 1595.87 476.92 1595.87 482.49C1595.87 488.06 1591.36 492.57 1585.79 492.57Z" fill="#8CBFBE" fill-opacity="0.24"/>
<path d="M1191.69 151.07H1132.47C1126.9 151.07 1122.39 146.56 1122.39 140.99C1122.39 135.42 1126.9 130.91 1132.47 130.91H1191.69C1197.26 130.91 1201.77 135.42 1201.77 140.99C1201.77 146.56 1197.26 151.07 1191.69 151.07Z" fill="#8CBFBE" fill-opacity="0.24"/>
<path d="M1191.69 183.29H1132.47C1126.9 183.29 1122.39 178.78 1122.39 173.21C1122.39 167.64 1126.9 163.13 1132.47 163.13H1191.69C1197.26 163.13 1201.77 167.64 1201.77 173.21C1201.77 178.78 1197.26 183.29 1191.69 183.29Z" fill="#8CBFBE" fill-opacity="0.24"/>
<path d="M1191.69 215.5H1132.47C1126.9 215.5 1122.39 210.99 1122.39 205.42C1122.39 199.85 1126.9 195.34 1132.47 195.34H1191.69C1197.26 195.34 1201.77 199.85 1201.77 205.42C1201.77 210.99 1197.26 215.5 1191.69 215.5Z" fill="#8CBFBE" fill-opacity="0.24"/>
<path d="M1191.69 247.72H1132.47C1126.9 247.72 1122.39 243.21 1122.39 237.64C1122.39 232.07 1126.9 227.56 1132.47 227.56H1191.69C1197.26 227.56 1201.77 232.07 1201.77 237.64C1201.77 243.21 1197.26 247.72 1191.69 247.72Z" fill="#8CBFBE" fill-opacity="0.24"/>
<path d="M1191.69 279.94H1132.47C1126.9 279.94 1122.39 275.43 1122.39 269.86C1122.39 264.29 1126.9 259.78 1132.47 259.78H1191.69C1197.26 259.78 1201.77 264.29 1201.77 269.86C1201.77 275.43 1197.26 279.94 1191.69 279.94Z" fill="#8CBFBE" fill-opacity="0.24"/>
<path d="M1173.52 332.94H1137.25V369.21H1173.52V332.94Z" fill="#8CBFBE" fill-opacity="0.24"/>
<path d="M1173.52 400.38H1137.25V436.65H1173.52V400.38Z" fill="#8CBFBE" fill-opacity="0.24"/>
<path d="M1173.52 464.36H1137.25V500.63H1173.52V464.36Z" fill="#8CBFBE" fill-opacity="0.24"/>
<path d="M1469.87 129.75H1444.95V154.67H1469.87V129.75Z" fill="#8CBFBE" fill-opacity="0.24"/>
<path d="M1512.86 129.75H1487.94V154.67H1512.86V129.75Z" fill="#8CBFBE" fill-opacity="0.24"/>
<path d="M1555.84 129.75H1530.92V154.67H1555.84V129.75Z" fill="#8CBFBE" fill-opacity="0.24"/>
<path d="M1469.87 203.05H1444.95V227.97H1469.87V203.05Z" fill="#8CBFBE" fill-opacity="0.24"/>
<path d="M1512.86 203.05H1487.94V227.97H1512.86V203.05Z" fill="#8CBFBE" fill-opacity="0.24"/>
<path d="M1555.84 203.05H1530.92V227.97H1555.84V203.05Z" fill="#8CBFBE" fill-opacity="0.24"/>
<path d="M1469.87 267.48H1444.95V292.4H1469.87V267.48Z" fill="#8CBFBE" fill-opacity="0.24"/>
<path d="M1512.86 267.48H1487.94V292.4H1512.86V267.48Z" fill="#8CBFBE" fill-opacity="0.24"/>
<path d="M1555.84 267.48H1530.92V292.4H1555.84V267.48Z" fill="#8CBFBE" fill-opacity="0.24"/>
<path d="M1210.01 145.62H1411.27" stroke="#0E192C" stroke-opacity="0.11" stroke-miterlimit="10"/>
<path d="M1210.01 183.29H1411.27" stroke="#0E192C" stroke-opacity="0.11" stroke-miterlimit="10"/>
<path d="M1210.01 215.5H1411.27" stroke="#0E192C" stroke-opacity="0.11" stroke-miterlimit="10"/>
<path d="M1210.01 247.72H1411.27" stroke="#0E192C" stroke-opacity="0.11" stroke-miterlimit="10"/>
<path d="M1210.01 282.37H1411.27" stroke="#0E192C" stroke-opacity="0.11" stroke-miterlimit="10"/>
</g>
<defs>
<clipPath id="clip0_16_2">
<rect width="1999" height="1550" fill="white"/>
</clipPath>
</defs>
</svg>