<svg width="200" height="200" viewBox="0 0 200 200" fill="none" xmlns="http://www.w3.org/2000/svg">
<rect width="200" height="200" rx="48" fill="white"/>
<rect width="200" height="200" rx="48" fill="url(#paint0_linear_73_79)" fill-opacity="0.16"/>
<g clip-path="url(#clip0_73_79)">
<path fill-rule="evenodd" clip-rule="evenodd" d="M164.741 125.533C163.57 115.913 158.463 106.98 150.117 102.007C149.059 101.376 147.992 100.842 146.924 100.394C142.475 98.5279 138 98.1487 134.004 98.4776C121.941 99.4694 115.976 105.402 106.615 112.025C95.8976 118.611 68.345 141.72 55.823 130.807C45.3056 121.642 50.6254 104.752 63.6299 99.836C76.6335 94.9207 87.2523 101.202 87.2523 101.202C76.3646 95.5761 51.8057 101.508 57.1909 114.961C60.6152 123.514 68.701 121.68 75.9131 118.113C84.9094 113.662 93.8412 106.14 104.532 106.153C97.0268 89.8817 54.4074 80.7065 39.1656 108.441C38.6211 109.433 38.1311 110.445 37.6955 111.474C35.3024 117.127 34.5443 123.273 35.2605 129.162C36.4315 138.782 41.5387 147.715 49.885 152.688C50.9437 153.318 52.0101 153.853 53.0781 154.301C70.9048 161.78 98.434 141.692 117.774 128.308C125.993 122.619 134.528 115.479 144.179 123.888C154.697 133.053 149.376 149.944 136.372 154.859C123.367 159.774 112.749 153.493 112.749 153.493C123.637 159.119 148.196 153.188 142.811 139.734C139.386 131.181 131.3 133.015 124.088 136.583C115.091 141.033 106.16 148.555 95.4688 148.542C102.974 164.813 145.594 173.988 160.835 146.254C161.38 145.263 161.87 144.25 162.305 143.221C164.698 137.568 165.457 131.421 164.74 125.532" fill="url(#paint1_linear_73_79)"/>
<path fill-rule="evenodd" clip-rule="evenodd" d="M66.8255 36C79.5812 36 89.9219 46.3318 89.9219 59.0764C89.9219 71.8209 79.5812 82.1527 66.8255 82.1527C54.0698 82.1527 43.7283 71.8218 43.7283 59.0764C43.7283 46.3309 54.0698 36 66.8255 36Z" fill="#FF2171"/>
<path fill-rule="evenodd" clip-rule="evenodd" d="M138.154 52.0161C149.204 52.0161 158.162 60.9661 158.162 72.0059C158.162 83.0457 149.204 91.9957 138.154 91.9957C127.105 91.9957 118.147 83.0457 118.147 72.0059C118.147 60.9661 127.105 52.0161 138.154 52.0161Z" fill="#FF2171"/>
</g>
<defs>
<linearGradient id="paint0_linear_73_79" x1="200" y1="200" x2="200" y2="0" gradientUnits="userSpaceOnUse">
<stop stop-color="#FE5196"/>
<stop offset="1" stop-color="#F77062"/>
</linearGradient>
<linearGradient id="paint1_linear_73_79" x1="37.8509" y1="90.8571" x2="137.728" y2="143.818" gradientUnits="userSpaceOnUse">
<stop stop-color="#F31559"/>
<stop offset="1" stop-color="#F11A7B"/>
</linearGradient>
<clipPath id="clip0_73_79">
<rect width="130" height="128" fill="white" transform="translate(35 36)"/>
</clipPath>
</defs>
</svg>
